<svg width="13" height="12" viewBox="0 0 13 12" fill="current" xmlns="http://www.w3.org/2000/svg">
<path d="M2.51266 12H6.44598C6.77463 12.0006 7.09873 11.9221 7.39166 11.7711C7.41805 11.758 7.4424 11.741 7.46394 11.7208C8.00916 11.9377 8.59489 12.0301 9.17939 11.9914C9.7639 11.9527 10.3328 11.7839 10.8455 11.4969C11.3582 11.2099 11.8022 10.8118 12.1457 10.3311C12.4893 9.85032 12.724 9.2987 12.833 8.71552C12.9421 8.13235 12.9229 7.53197 12.7768 6.95717C12.6307 6.38237 12.3613 5.8473 11.9878 5.39009C11.6143 4.93287 11.1458 4.56477 10.6158 4.31201C10.0858 4.05925 9.50736 3.92806 8.92161 3.92777C8.79211 3.92777 8.66411 3.93388 8.53762 3.94608V2.11496C8.53742 1.83689 8.48315 1.56158 8.37791 1.30478C8.27267 1.04797 8.11852 0.814697 7.92427 0.618285C7.73003 0.421874 7.49949 0.266175 7.24584 0.160087C6.99218 0.0539989 6.72038 -0.000398835 6.44598 2.20134e-06H2.51266C1.95924 0.000406379 1.42861 0.223361 1.03728 0.619904C0.645957 1.01645 0.425936 1.55416 0.425537 2.11496V9.88504C0.425936 10.4458 0.645957 10.9836 1.03728 11.3801C1.42861 11.7766 1.95924 11.9996 2.51266 12ZM12.1502 7.96389C12.1502 8.61132 11.9607 9.24421 11.6057 9.7825C11.2507 10.3208 10.7462 10.7403 10.1559 10.988C9.56555 11.2357 8.91601 11.3004 8.2894 11.174C7.66278 11.0476 7.08724 10.7357 6.63557 10.2778C6.18389 9.8199 5.87638 9.23654 5.75191 8.60151C5.62745 7.96648 5.69163 7.30831 5.93634 6.71025C6.18105 6.11219 6.59529 5.6011 7.12667 5.24162C7.65805 4.88215 8.2827 4.69044 8.92161 4.69074C9.77725 4.69276 10.5972 5.0384 11.2018 5.65193C11.8064 6.26546 12.1464 7.09683 12.1472 7.96389H12.1502ZM4.9371 7.96389C4.93717 8.60128 5.08637 9.22959 5.37248 9.79723C5.65859 10.3649 6.07345 10.8557 6.58301 11.2294C6.53836 11.2317 6.49363 11.2317 6.44899 11.2294H2.51266C2.15881 11.2294 1.81945 11.087 1.56924 10.8334C1.31903 10.5799 1.17847 10.236 1.17847 9.87742V3.15107H7.78017V4.09563C6.95854 4.34487 6.23803 4.85572 5.72539 5.55248C5.21275 6.24923 4.93528 7.0948 4.93409 7.96389H4.9371ZM2.51266 0.762972H6.44598C6.79983 0.762972 7.13918 0.905413 7.38939 1.15896C7.6396 1.41251 7.78017 1.75639 7.78017 2.11496V2.3881H1.17847V2.11496C1.17847 1.75639 1.31903 1.41251 1.56924 1.15896C1.81945 0.905413 2.15881 0.762972 2.51266 0.762972ZM4.01401 5.08444C4.01401 5.18561 3.97434 5.28264 3.90374 5.35419C3.83314 5.42573 3.73739 5.46592 3.63754 5.46592H2.75511C2.65526 5.46592 2.55951 5.42573 2.4889 5.35419C2.4183 5.28264 2.37864 5.18561 2.37864 5.08444C2.37864 4.98326 2.4183 4.88623 2.4889 4.81468C2.55951 4.74314 2.65526 4.70295 2.75511 4.70295H3.63754C3.73739 4.70295 3.83314 4.74314 3.90374 4.81468C3.97434 4.88623 4.01401 4.98326 4.01401 5.08444ZM4.01401 7.1765C4.01401 7.27768 3.97434 7.37471 3.90374 7.44625C3.83314 7.51779 3.73739 7.55799 3.63754 7.55799H2.75511C2.65526 7.55799 2.55951 7.51779 2.4889 7.44625C2.4183 7.37471 2.37864 7.27768 2.37864 7.1765C2.37864 7.07532 2.4183 6.97829 2.4889 6.90675C2.55951 6.83521 2.65526 6.79501 2.75511 6.79501H3.63754C3.68716 6.79481 3.73633 6.80459 3.78219 6.82379C3.82806 6.84298 3.86971 6.87121 3.90472 6.90684C3.93974 6.94246 3.96743 6.98478 3.98619 7.03133C4.00495 7.07788 4.01441 7.12774 4.01401 7.17803V7.1765ZM4.01401 9.26704C4.01401 9.36822 3.97434 9.46525 3.90374 9.53679C3.83314 9.60833 3.73739 9.64852 3.63754 9.64852H2.75511C2.65526 9.64852 2.55951 9.60833 2.4889 9.53679C2.4183 9.46525 2.37864 9.36822 2.37864 9.26704C2.37864 9.16586 2.4183 9.06883 2.4889 8.99729C2.55951 8.92575 2.65526 8.88555 2.75511 8.88555H3.63754C3.68711 8.88555 3.73618 8.89547 3.78196 8.91474C3.82773 8.934 3.8693 8.96224 3.90428 8.99783C3.93925 9.03341 3.96695 9.07565 3.98578 9.12211C4.00461 9.16857 4.01421 9.21834 4.01401 9.26856V9.26704ZM7.54074 7.06816C7.54074 6.50661 7.96388 6.03357 8.54063 5.88555V5.64598C8.54063 5.54481 8.58029 5.44777 8.65089 5.37623C8.72149 5.30469 8.81725 5.2645 8.91709 5.2645C9.01694 5.2645 9.1127 5.30469 9.1833 5.37623C9.2539 5.44777 9.29356 5.54481 9.29356 5.64598V5.87945C9.55344 5.94094 9.7903 6.07711 9.97572 6.27162C10.0097 6.30799 10.0363 6.35079 10.054 6.39758C10.0717 6.44438 10.0801 6.49424 10.0788 6.54433C10.0775 6.59442 10.0664 6.64375 10.0463 6.68952C10.0261 6.73528 9.9973 6.77657 9.96141 6.81104C9.92552 6.8455 9.88328 6.87247 9.8371 6.8904C9.79093 6.90832 9.74172 6.91685 9.69229 6.91551C9.64286 6.91416 9.59417 6.90296 9.54901 6.88255C9.50385 6.86214 9.4631 6.83291 9.42909 6.79654C9.36196 6.73037 9.28253 6.67836 9.19542 6.64353C9.10831 6.60869 9.01524 6.59171 8.92161 6.59359C8.58279 6.59359 8.29819 6.80722 8.29819 7.06053C8.29819 7.31384 8.57828 7.52594 8.92161 7.52594C9.67454 7.52594 10.298 8.07833 10.298 8.75737C10.298 9.31892 9.87482 9.79196 9.29808 9.93845V10.2803C9.29808 10.3814 9.25841 10.4785 9.18781 10.55C9.11721 10.6216 9.02146 10.6617 8.92161 10.6617C8.82177 10.6617 8.72601 10.6216 8.65541 10.55C8.58481 10.4785 8.54515 10.3814 8.54515 10.2803V9.9415C8.22221 9.86607 7.93775 9.67336 7.74553 9.3998C7.715 9.35873 7.69296 9.31184 7.68076 9.26193C7.66856 9.21202 7.66645 9.16012 7.67454 9.10936C7.68263 9.0586 7.70077 9.01002 7.72786 8.96655C7.75494 8.92307 7.79043 8.88559 7.83217 8.85636C7.87392 8.82713 7.92106 8.80675 7.97078 8.79645C8.02049 8.78615 8.07174 8.78614 8.12146 8.79642C8.17118 8.8067 8.21833 8.82706 8.26009 8.85628C8.30184 8.88549 8.33734 8.92296 8.36444 8.96643C8.43057 9.0511 8.51551 9.11873 8.61234 9.16381C8.70917 9.2089 8.81514 9.23015 8.92161 9.22584C9.26043 9.22584 9.54504 9.01221 9.54504 8.7589C9.54504 8.50559 9.25591 8.28891 8.92161 8.28891C8.15814 8.28891 7.54074 7.73957 7.54074 7.06816Z" fill="current"/>
</svg>
