<svg width="24" height="24" viewBox="0 0 24 24" fill="none" xmlns="http://www.w3.org/2000/svg">
<path d="M16.8742 22.9672C16.1458 23.2917 15.3805 23.5455 14.5875 23.7199L14.5705 23.7232C13.7414 23.904 12.8811 24 12 24C5.37239 24 0 18.6276 0 12C0 8.68653 1.34326 5.68586 3.51456 3.51456C5.68586 1.34326 8.68653 0 12 0C15.3135 0 18.3141 1.34326 20.4854 3.51456C22.6567 5.68586 24 8.68653 24 12C24 12.8867 23.903 13.7524 23.7199 14.5855C23.5455 15.3802 23.2917 16.1455 22.9672 16.8742C22.8685 16.7514 22.7634 16.6341 22.6521 16.5227C22.548 16.4186 22.4386 16.3199 22.3243 16.2265C22.563 15.6433 22.7544 15.0347 22.8928 14.4051C23.0629 13.6324 23.153 12.8267 23.153 12C23.153 8.9203 21.9047 6.13173 19.8865 4.11349C17.8683 2.09526 15.0797 0.847043 12 0.847043C8.9203 0.847043 6.13173 2.09526 4.11349 4.11349C2.09526 6.13173 0.847043 8.9203 0.847043 12C0.847043 14.4498 1.63673 16.7148 2.97566 18.5549C3.1544 17.4441 3.68497 16.447 4.44864 15.6833L4.47366 15.6603C5.42208 14.7239 6.72265 14.144 8.15096 14.144H8.9243C9.00767 14.144 9.08504 14.168 9.15073 14.2096C9.57959 14.4438 10.0381 14.6272 10.515 14.7496C10.9849 14.8703 11.4828 14.9346 12.0003 14.9346C12.5179 14.9346 13.0158 14.8703 13.4857 14.7496C13.9712 14.6248 14.4374 14.4371 14.8726 14.197C14.9373 14.1616 15.007 14.145 15.076 14.145L15.849 14.144C16.461 14.144 17.0529 14.252 17.6055 14.4501C18.1494 14.6452 18.653 14.9276 19.0978 15.2808C18.0967 15.3935 17.1986 15.8474 16.523 16.523C15.739 17.307 15.2534 18.3908 15.2534 19.5874C15.2534 20.7839 15.7387 21.8681 16.5227 22.6521C16.6341 22.7634 16.7514 22.8685 16.8742 22.9672ZM22.0531 17.1216C21.4225 16.491 20.5501 16.1005 19.5874 16.1005C18.6246 16.1005 17.7526 16.4913 17.1219 17.1219C16.4913 17.7526 16.1005 18.6246 16.1005 19.5874C16.1005 20.5501 16.491 21.4225 17.1216 22.0531C17.7522 22.6837 18.6246 23.0746 19.5874 23.0746C20.5515 23.0746 21.4235 22.6847 22.0531 22.0548C22.6847 21.4235 23.0746 20.5515 23.0746 19.5874C23.0746 18.6246 22.6837 17.7522 22.0531 17.1216ZM19.1638 17.25C19.1638 17.0162 19.3536 16.8265 19.5874 16.8265C19.8211 16.8265 20.0109 17.0162 20.0109 17.25V19.1638H21.9251C22.1588 19.1638 22.3486 19.3536 22.3486 19.5874C22.3486 19.8211 22.1588 20.0109 21.9251 20.0109H20.0109V21.9251C20.0109 22.1588 19.8211 22.3486 19.5874 22.3486C19.3536 22.3486 19.1638 22.1588 19.1638 21.9251V20.0109H17.25C17.0162 20.0109 16.8265 19.8211 16.8265 19.5874C16.8265 19.3536 17.0162 19.1638 17.25 19.1638H19.1638V17.25ZM12.0003 4.17052C14.6602 4.17052 16.8165 6.32715 16.8165 8.98699C16.8165 11.6445 14.6582 13.8028 12.0003 13.8028C9.34315 13.8028 7.18386 11.6445 7.18386 8.98699C7.18386 6.32681 9.34015 4.17052 12.0003 4.17052Z" fill="white"/>
</svg>
