<svg width="22" height="22" viewBox="0 0 22 22" fill="none" xmlns="http://www.w3.org/2000/svg">
<path d="M20.9572 5.17923H1.04281L10.3692 0.164606C10.7774 -0.0548688 11.2228 -0.0548688 11.6311 0.164606L20.9572 5.17923ZM1.02461 19.8196H5.24563V19.4892C5.24563 19.1509 4.97952 18.8742 4.65418 18.8742H1.61606C1.29073 18.8742 1.02461 19.1509 1.02461 19.4892V19.8196ZM5.24563 7.97467V7.64426H1.02461V7.97467C1.02461 8.31299 1.29073 8.58973 1.61606 8.58973H4.65441C4.97975 8.58973 5.24563 8.31299 5.24563 7.97467ZM4.41617 9.84476C4.53322 9.74029 4.60672 9.58647 4.60672 9.40605V9.14991H1.66352V9.40605C1.66352 9.58647 1.73725 9.74005 1.8543 9.84476C2.11189 10.075 2.24622 10.3791 2.24622 10.7325V11.9937C2.24622 12.4016 2.16443 12.7507 1.98379 13.1127C1.8914 13.2981 1.83909 13.5088 1.83909 13.7321C1.83909 13.9554 1.8914 14.166 1.98379 14.3514C2.1642 14.7135 2.24622 15.0626 2.24622 15.4704V16.7316C2.24622 17.085 2.11189 17.3891 1.8543 17.6194C1.73725 17.7238 1.66352 17.8776 1.66352 18.0581V18.3142H4.60695V18.0581C4.60695 17.8776 4.53345 17.7241 4.41641 17.6194C4.15858 17.3891 4.02449 17.085 4.02449 16.7316V15.4704C4.02449 15.0628 4.10628 14.7135 4.28692 14.3514C4.37931 14.166 4.43161 13.9554 4.43161 13.7321C4.43161 13.5088 4.37931 13.2981 4.28692 13.1127C4.10651 12.7507 4.02449 12.4016 4.02449 11.9937V10.7325C4.02449 10.3791 4.15881 10.075 4.41641 9.84476H4.41617ZM21.7682 5.73966H0.231788C0.104374 5.73966 0 5.8482 0 5.9807V6.84279C0 6.97529 0.104374 7.08383 0.231788 7.08383H21.7682C21.8956 7.08383 22 6.97529 22 6.84279V5.9807C22 5.8482 21.8956 5.73966 21.7682 5.73966ZM21.7207 20.3798H0.279481C0.125801 20.3798 0 20.5106 0 20.6704V21.7094C0 21.8692 0.125801 22 0.279481 22H21.7205C21.8742 22 22 21.8692 22 21.7094V20.6704C22 20.5106 21.8744 20.3798 21.7207 20.3798ZM20.1462 9.84452C20.2632 9.74005 20.3367 9.58623 20.3367 9.40581V9.14967H17.3933V9.40581C17.3933 9.58623 17.467 9.73981 17.5841 9.84452C17.8416 10.0748 17.976 10.3788 17.976 10.7322V11.9935C17.976 12.4013 17.8942 12.7504 17.7135 13.1124C17.6212 13.2979 17.5688 13.5085 17.5688 13.7318C17.5688 13.9551 17.6212 14.1657 17.7135 14.3512C17.894 14.7132 17.976 15.0623 17.976 15.4701V16.7314C17.976 17.0848 17.8416 17.3889 17.5841 17.6191C17.467 17.7236 17.3933 17.8774 17.3933 18.0578V18.314H20.3367V18.0578C20.3367 17.8774 20.2632 17.7238 20.1462 17.6191C19.8883 17.3889 19.7542 17.0848 19.7542 16.7314V15.4701C19.7542 15.0626 19.836 14.7132 20.0167 14.3512C20.1091 14.1657 20.1614 13.9551 20.1614 13.7318C20.1614 13.5085 20.1091 13.2979 20.0167 13.1124C19.8363 12.7504 19.7542 12.4013 19.7542 11.9935V10.7322C19.7542 10.3788 19.8886 10.0748 20.1462 9.84452ZM16.7546 19.8196H20.9756V19.4892C20.9756 19.1509 20.7095 18.8742 20.3842 18.8742H17.3458C17.0205 18.8742 16.7544 19.1509 16.7544 19.4892L16.7546 19.8196ZM20.9756 7.97467V7.64426H16.7546V7.97467C16.7546 8.31299 17.0207 8.58973 17.346 8.58973H20.3844C20.7097 8.58973 20.9756 8.31299 20.9756 7.97467ZM8.42707 13.7321C8.42707 12.2542 9.57909 11.0562 11.0002 11.0562C12.4214 11.0562 13.5734 12.2542 13.5734 13.7321C13.5734 15.2099 12.4214 16.4079 11.0002 16.4079C9.57909 16.4079 8.42707 15.2099 8.42707 13.7321ZM9.96525 13.4697C10.1616 13.79 10.5261 13.8864 10.9005 13.9851C11.185 14.0603 11.4772 14.1375 11.5871 14.3021C11.6689 14.4458 11.57 14.5872 11.459 14.6751C11.329 14.7779 11.1622 14.8268 11.0002 14.8268C10.8505 14.8268 10.7136 14.7865 10.6037 14.7183C10.4975 14.6524 10.4164 14.5616 10.3749 14.4581C10.318 14.3155 10.1606 14.2479 10.0235 14.3071C9.88645 14.3663 9.82148 14.5299 9.87839 14.6725C9.96456 14.8877 10.1235 15.0707 10.3281 15.1975C10.4486 15.2722 10.585 15.3276 10.7309 15.3587V15.5907C10.7309 15.7454 10.8514 15.8707 11.0002 15.8707C11.1491 15.8707 11.2696 15.7454 11.2696 15.5907V15.3587C11.3193 15.3482 11.368 15.3348 11.4154 15.3187C11.5502 15.2732 11.6746 15.2051 11.7831 15.1194C11.9578 14.9811 12.082 14.8004 12.1311 14.6028C12.2292 14.2091 12.0265 13.8739 11.7071 13.6858C11.506 13.5675 11.2675 13.5042 11.0329 13.4424C10.762 13.3707 10.4982 13.301 10.4178 13.17C10.3832 13.1134 10.3756 13.0552 10.389 13.0015C10.4291 12.841 10.6095 12.725 10.7509 12.6773C10.827 12.6517 10.9108 12.6376 11 12.6376C11.1463 12.6376 11.2804 12.6759 11.3889 12.7411C11.4942 12.8041 11.5753 12.8915 11.6196 12.9917C11.6811 13.1319 11.8405 13.1937 11.9753 13.1295C12.1101 13.0655 12.1695 12.8997 12.1078 12.7595C12.0168 12.553 11.8576 12.3781 11.6562 12.2573C11.5396 12.1873 11.409 12.1354 11.2693 12.1056V11.8737C11.2693 11.7189 11.1488 11.5936 11 11.5936C10.8512 11.5936 10.7307 11.7189 10.7307 11.8737V12.1056C10.6809 12.1162 10.6323 12.1296 10.5848 12.1457C10.2629 12.2542 9.95696 12.5094 9.86917 12.8616C9.8194 13.0614 9.84406 13.2718 9.96525 13.4697ZM12.5193 8.58973C12.8446 8.58973 13.1107 8.31299 13.1107 7.97467V7.64426H8.88972V7.97467C8.88972 8.31299 9.15584 8.58973 9.48117 8.58973H12.5193ZM9.48094 18.8744C9.15561 18.8744 8.88949 19.1511 8.88949 19.4895V19.8199H13.1105V19.4895C13.1105 19.1511 12.8444 18.8744 12.5191 18.8744H9.48071H9.48094ZM9.93138 10.0927C9.87401 10.0029 9.80305 9.92 9.71895 9.84476C9.6019 9.74029 9.52817 9.58647 9.52817 9.40605V9.14991H12.4716V9.40605C12.4716 9.58647 12.3981 9.74005 12.2811 9.84476C12.197 9.91975 12.1262 10.0027 12.0688 10.0927C13.5679 10.5684 14.6586 12.0177 14.6586 13.7321C14.6586 15.4464 13.5679 16.896 12.0688 17.3714C12.1262 17.4612 12.1972 17.5441 12.2813 17.6194C12.3983 17.7238 12.4718 17.8776 12.4718 18.0581V18.3142H9.5284V18.0581C9.5284 17.8776 9.60213 17.7241 9.71918 17.6194C9.80328 17.5444 9.87401 17.4615 9.93138 17.3714C8.43237 16.896 7.34163 15.4464 7.34163 13.7321C7.34163 12.0177 8.43237 10.5681 9.93138 10.0927ZM7.88815 13.7321C7.88815 15.5192 9.28141 16.9681 11 16.9681C12.7186 16.9681 14.1119 15.5192 14.1119 13.7321C14.1119 11.9449 12.7186 10.496 11 10.496C9.28141 10.496 7.88815 11.9449 7.88815 13.7321Z" fill="white"/>
</svg>
