<svg width="14" height="14" viewBox="0 0 14 14" fill="none" xmlns="http://www.w3.org/2000/svg">
<path d="M11.6424 1.90041V1.76664C11.6425 1.57844 11.6056 1.39205 11.5337 1.21812C11.4618 1.0442 11.3564 0.886142 11.2233 0.752998C11.0903 0.619853 10.9324 0.51423 10.7585 0.442165C10.5846 0.3701 10.3982 0.333008 10.21 0.333008C10.0218 0.333008 9.83543 0.3701 9.66156 0.442165C9.48769 0.51423 9.32972 0.619853 9.1967 0.752998C9.06368 0.886142 8.9582 1.0442 8.88631 1.21812C8.81441 1.39205 8.7775 1.57844 8.7777 1.76664V1.89872H5.22214V1.76664C5.22233 1.57844 5.18543 1.39205 5.11353 1.21812C5.04163 1.0442 4.93616 0.886142 4.80314 0.752998C4.67011 0.619853 4.51215 0.51423 4.33828 0.442165C4.1644 0.3701 3.97803 0.333008 3.78981 0.333008C3.60159 0.333008 3.41522 0.3701 3.24135 0.442165C3.06747 0.51423 2.90951 0.619853 2.77649 0.752998C2.64347 0.886142 2.53799 1.0442 2.4661 1.21812C2.3942 1.39205 2.35729 1.57844 2.35748 1.76664V1.90041C1.81797 1.90959 1.30362 2.13013 0.925063 2.51461C0.546507 2.89908 0.333999 3.41676 0.333252 3.95629V11.6088C0.333862 12.1543 0.550861 12.6773 0.936641 13.063C1.32242 13.4488 1.84548 13.6657 2.39105 13.6663H11.6088C12.1544 13.6657 12.6774 13.4488 13.0632 13.063C13.449 12.6773 13.666 12.1543 13.6666 11.6088V3.95629C13.6658 3.41676 13.4533 2.89908 13.0748 2.51461C12.6962 2.13013 12.1819 1.90959 11.6424 1.90041ZM9.66658 1.76664C9.66647 1.69521 9.68044 1.62445 9.7077 1.55842C9.73495 1.49239 9.77496 1.43238 9.82544 1.38183C9.87591 1.33128 9.93586 1.29117 10.0019 1.26381C10.0678 1.23645 10.1386 1.22236 10.21 1.22236C10.2815 1.22236 10.3522 1.23645 10.4182 1.26381C10.4842 1.29117 10.5441 1.33128 10.5946 1.38183C10.6451 1.43238 10.6851 1.49239 10.7124 1.55842C10.7396 1.62445 10.7536 1.69521 10.7535 1.76664V2.92074C10.7532 3.0647 10.6959 3.20268 10.594 3.30439C10.4921 3.4061 10.354 3.46322 10.21 3.46322C10.0661 3.46322 9.92796 3.4061 9.82607 3.30439C9.72418 3.20268 9.66682 3.0647 9.66658 2.92074V1.76664ZM3.24637 1.76664C3.24626 1.69521 3.26022 1.62445 3.28748 1.55842C3.31474 1.49239 3.35475 1.43238 3.40523 1.38183C3.4557 1.33128 3.51565 1.29117 3.58164 1.26381C3.64763 1.23645 3.71837 1.22236 3.78981 1.22236C3.86125 1.22236 3.93199 1.23645 3.99799 1.26381C4.06398 1.29117 4.12392 1.33128 4.1744 1.38183C4.22487 1.43238 4.26489 1.49239 4.29214 1.55842C4.3194 1.62445 4.33337 1.69521 4.33325 1.76664V2.92074C4.33301 3.0647 4.27565 3.20268 4.17377 3.30439C4.07188 3.4061 3.93379 3.46322 3.78981 3.46322C3.64584 3.46322 3.50775 3.4061 3.40586 3.30439C3.30397 3.20268 3.24661 3.0647 3.24637 2.92074V1.76664ZM11.6088 12.7775H2.39105C2.08114 12.7772 1.78403 12.6539 1.5649 12.4348C1.34576 12.2157 1.22249 11.9186 1.22214 11.6088V6.11159H12.7777V11.6088C12.7773 11.9186 12.6541 12.2157 12.4349 12.4348C12.2158 12.6539 11.9187 12.7772 11.6088 12.7775Z" fill="#555555"/>
</svg>
