<svg width="14" height="14" viewBox="0 0 14 14" fill="none" xmlns="http://www.w3.org/2000/svg">
<path d="M10.4934 2.70623C10.7193 2.70623 10.9042 2.51974 10.9042 2.2918V0.414431C10.9042 0.186494 10.7193 0 10.4934 0C10.2674 0 10.0825 0.186494 10.0825 0.414431V2.2918C10.0825 2.51974 10.2674 2.70623 10.4934 2.70623Z" fill="white"/>
<path d="M3.50876 2.70623C3.73473 2.70623 3.91962 2.51974 3.91962 2.2918V0.414431C3.91962 0.186494 3.73473 0 3.50876 0C3.28279 0 3.0979 0.186494 3.0979 0.414431V2.2918C3.0979 2.51974 3.28279 2.70623 3.50876 2.70623Z" fill="white"/>
<path d="M1.90834 13.6716H12.0915C13.1433 13.6716 13.9999 12.8075 13.9999 11.7466V4.9209H0.00195312V11.7486C0.00195312 12.8096 0.856538 13.6716 1.90834 13.6716ZM9.59139 6.56412C9.59139 6.39213 9.72902 6.25329 9.89953 6.25329H11.4998C11.6703 6.25329 11.808 6.39213 11.808 6.56412V8.17833C11.808 8.35031 11.6703 8.48915 11.4998 8.48915H9.89953C9.72902 8.48915 9.59139 8.35031 9.59139 8.17833V6.56412ZM9.59139 9.67235C9.59139 9.50036 9.72902 9.36153 9.89953 9.36153H11.4998C11.6703 9.36153 11.808 9.50036 11.808 9.67235V11.2866C11.808 11.4585 11.6703 11.5974 11.4998 11.5974H9.89953C9.72902 11.5974 9.59139 11.4585 9.59139 11.2866V9.67235ZM5.89366 6.56412C5.89366 6.39213 6.0313 6.25329 6.20181 6.25329H7.8021C7.9726 6.25329 8.11024 6.39213 8.11024 6.56412V8.17833C8.11024 8.35031 7.9726 8.48915 7.8021 8.48915H6.20181C6.0313 8.48915 5.89366 8.35031 5.89366 8.17833V6.56412ZM5.89366 9.67235C5.89366 9.50036 6.0313 9.36153 6.20181 9.36153H7.8021C7.9726 9.36153 8.11024 9.50036 8.11024 9.67235V11.2866C8.11024 11.4585 7.9726 11.5974 7.8021 11.5974H6.20181C6.0313 11.5974 5.89366 11.4585 5.89366 11.2866V9.67235ZM2.19594 6.56412C2.19594 6.39213 2.33357 6.25329 2.50408 6.25329H4.10437C4.27488 6.25329 4.41252 6.39213 4.41252 6.56412V8.17833C4.41252 8.35031 4.27488 8.48915 4.10437 8.48915H2.50408C2.33357 8.48915 2.19594 8.35031 2.19594 8.17833V6.56412ZM2.19594 9.67235C2.19594 9.50036 2.33357 9.36153 2.50408 9.36153H4.10437C4.27488 9.36153 4.41252 9.50036 4.41252 9.67235V11.2866C4.41252 11.4585 4.27488 11.5974 4.10437 11.5974H2.50408C2.33357 11.5974 2.19594 11.4585 2.19594 11.2866V9.67235Z" fill="white"/>
<path d="M14 3.54808C14 2.48714 13.1434 1.62305 12.0916 1.62305H11.315V2.29028C11.315 2.74823 10.9473 3.11914 10.4933 3.11914C10.0393 3.11914 9.6716 2.74823 9.6716 2.29028V1.62305H4.33045V2.29028C4.33045 2.74823 3.96273 3.11914 3.50873 3.11914C3.05473 3.11914 2.68701 2.74823 2.68701 2.29028V1.62305H1.90844C0.856639 1.62305 0 2.48714 0 3.54808V4.30027H14V3.54808Z" fill="white"/>
</svg>
