<svg width="14" height="15" viewBox="0 0 14 15" fill="none" xmlns="http://www.w3.org/2000/svg">
<path d="M11.0437 1.97721H10.866V0.982222C10.866 0.854329 10.8159 0.731674 10.7266 0.64124C10.6374 0.550805 10.5163 0.5 10.3901 0.5C10.2639 0.5 10.1429 0.550805 10.0536 0.64124C9.96438 0.731674 9.91425 0.854329 9.91425 0.982222V1.97399H3.55811V0.982222C3.55811 0.854329 3.50798 0.731674 3.41873 0.64124C3.32949 0.550805 3.20845 0.5 3.08224 0.5C2.95603 0.5 2.83498 0.550805 2.74574 0.64124C2.6565 0.731674 2.60636 0.854329 2.60636 0.982222V1.97399H2.4398C1.88135 1.97569 1.34627 2.20135 0.951537 2.60166C0.556799 3.00196 0.334507 3.54434 0.333252 4.11024V12.8304C0.334507 13.3963 0.556799 13.9387 0.951537 14.339C1.34627 14.7393 1.88135 14.965 2.4398 14.9667H11.0437C11.6021 14.965 12.1372 14.7393 12.5319 14.339C12.9267 13.9387 13.149 13.3963 13.1502 12.8304V4.11024C13.1481 3.5449 12.9255 3.00334 12.5308 2.60373C12.1362 2.20412 11.6016 1.9789 11.0437 1.97721ZM12.2016 12.8304C12.2012 13.1415 12.0791 13.4397 11.862 13.6597C11.6449 13.8796 11.3506 14.0034 11.0437 14.0038H2.4398C2.13282 14.0034 1.83853 13.8796 1.62146 13.6597C1.40439 13.4397 1.28225 13.1415 1.28183 12.8304V6.34614H12.2016V12.8304Z" fill="#555555"/>
<path d="M4.93189 10.7496C4.98496 10.8013 5.02471 10.8654 5.04766 10.9363C5.07062 11.0072 5.07607 11.0827 5.06355 11.1562L4.88906 12.1818C4.87527 12.2661 4.88498 12.3527 4.9171 12.4318C4.94921 12.5109 5.00246 12.5793 5.07085 12.6294C5.13925 12.6795 5.22008 12.7093 5.30425 12.7154C5.38843 12.7215 5.47262 12.7037 5.54736 12.664L6.45787 12.1818C6.5231 12.1477 6.59544 12.1299 6.66884 12.1299C6.74224 12.1299 6.81458 12.1477 6.87981 12.1818L7.78874 12.664C7.86347 12.7037 7.94766 12.7215 8.03184 12.7154C8.11602 12.7093 8.19685 12.6795 8.26524 12.6294C8.33363 12.5793 8.38688 12.5109 8.419 12.4318C8.45111 12.3527 8.46082 12.2661 8.44703 12.1818L8.27413 11.1562C8.26169 11.0829 8.26702 11.0075 8.28968 10.9367C8.31234 10.8658 8.35164 10.8016 8.4042 10.7496L9.14023 10.0214C9.20091 9.96161 9.24387 9.88578 9.26424 9.80252C9.28462 9.71926 9.2816 9.63188 9.25552 9.55027C9.22944 9.46866 9.18135 9.39607 9.11669 9.34071C9.05202 9.28535 8.97336 9.24943 8.8896 9.237L7.87122 9.08752C7.79941 9.07619 7.73134 9.04748 7.6728 9.00383C7.61426 8.96018 7.56697 8.90287 7.53494 8.83676L7.07492 7.90286C7.03747 7.82591 6.97951 7.76111 6.90761 7.7158C6.8357 7.6705 6.75272 7.64648 6.66805 7.64648C6.58337 7.64648 6.50039 7.6705 6.42849 7.7158C6.35658 7.76111 6.29862 7.82591 6.26117 7.90286L5.8075 8.83676C5.77541 8.90251 5.7283 8.95956 5.67009 9.00317C5.61188 9.04678 5.54425 9.07569 5.4728 9.08752L4.45601 9.237C4.37212 9.24918 4.29327 9.28492 4.2284 9.34018C4.16352 9.39544 4.11522 9.46801 4.08897 9.54966C4.06271 9.63132 4.05956 9.71879 4.07985 9.80217C4.10015 9.88555 4.14308 9.9615 4.2038 10.0214L4.93189 10.7496Z" fill="#555555"/>
</svg>
