<svg width="9" height="9" viewBox="0 0 9 9" fill="none" xmlns="http://www.w3.org/2000/svg">
<path d="M8.10761 1.05882C7.80675 0.758389 7.31248 0.758389 6.99013 1.05882L4.58325 3.46225L2.17638 1.05882C1.87552 0.758389 1.38125 0.758389 1.0589 1.05882C0.758037 1.35925 0.758037 1.85281 1.0589 2.1747L3.46577 4.57813L1.0589 6.98156C0.758037 7.28199 0.758037 7.77556 1.0589 8.09745C1.20933 8.24766 1.42423 8.3335 1.61764 8.3335C1.81105 8.3335 2.02595 8.24766 2.17638 8.09745L4.58325 5.69401L6.99013 8.09745C7.14056 8.24766 7.35546 8.3335 7.54887 8.3335C7.74228 8.3335 7.95718 8.24766 8.10761 8.09745C8.40847 7.79702 8.40847 7.30345 8.10761 6.98156L5.70073 4.57813L8.10761 2.1747C8.40847 1.85281 8.40847 1.35925 8.10761 1.05882Z" fill="#393939" stroke="#E3E3E3" stroke-width="0.416667"/>
</svg>
