<svg width="12" height="12" viewBox="0 0 12 12" fill="none" xmlns="http://www.w3.org/2000/svg">
<path d="M11.7573 2.15282H2.7596L2.12493 0.333337C2.05546 0.133602 1.8672 0 1.656 0H0.496799C0.222533 0 0 0.222536 0 0.496806C0 0.771209 0.222533 0.993745 0.496799 0.993745H1.30306L4.16759 9.20544C4.23719 9.40491 4.42546 9.53851 4.63666 9.53851H9.77012C10.0444 9.53851 10.2669 9.31637 10.2669 9.0417C10.2669 8.76703 10.0444 8.5449 9.77012 8.5449H4.98946L4.70306 7.72395L10.1032 7.15528C10.285 7.13608 10.4794 6.98008 10.5373 6.80634L11.9837 2.46723C12.0416 2.29349 11.9404 2.15282 11.7573 2.15282Z" fill="#393939"/>
<path d="M9.05257 12C9.63173 12 10.1012 11.5305 10.1012 10.9513C10.1012 10.3722 9.63173 9.90265 9.05257 9.90265C8.47341 9.90265 8.00391 10.3722 8.00391 10.9513C8.00391 11.5305 8.47341 12 9.05257 12Z" fill="#393939"/>
<path d="M5.74056 12C6.31972 12 6.78922 11.5305 6.78922 10.9513C6.78922 10.3722 6.31972 9.90265 5.74056 9.90265C5.1614 9.90265 4.69189 10.3722 4.69189 10.9513C4.69189 11.5305 5.1614 12 5.74056 12Z" fill="#393939"/>
</svg>
