<svg width="14" height="14" viewBox="0 0 14 14" fill="none" xmlns="http://www.w3.org/2000/svg">
<path fill-rule="evenodd" clip-rule="evenodd" d="M6.99992 13.6663C3.31802 13.6663 0.333252 10.6816 0.333252 6.99967C0.333252 3.31778 3.31802 0.333008 6.99992 0.333008C10.6818 0.333008 13.6666 3.31778 13.6666 6.99967C13.6666 10.6816 10.6818 13.6663 6.99992 13.6663ZM5.92849 6.04729H3.19039C3.0589 6.04729 2.9523 6.15389 2.9523 6.28539V7.71396C2.9523 7.84546 3.0589 7.95206 3.19039 7.95206H5.92849C5.99424 7.95206 6.04754 8.00535 6.04754 8.0711V10.8092C6.04754 10.9407 6.15414 11.0473 6.28563 11.0473H7.7142C7.8457 11.0473 7.9523 10.9407 7.9523 10.8092V8.0711C7.9523 8.00535 8.0056 7.95206 8.07135 7.95206H10.8094C10.9409 7.95206 11.0475 7.84546 11.0475 7.71396V6.28539C11.0475 6.15389 10.9409 6.04729 10.8094 6.04729H8.07135C8.0056 6.04729 7.9523 5.99399 7.9523 5.92825V3.19015C7.9523 3.05865 7.8457 2.95206 7.7142 2.95206H6.28563C6.15414 2.95206 6.04754 3.05865 6.04754 3.19015V5.92825C6.04754 5.99399 5.99424 6.04729 5.92849 6.04729Z" fill="#555555"/>
</svg>
