<svg width="22" height="22" viewBox="0 0 22 22" fill="none" xmlns="http://www.w3.org/2000/svg">
<path d="M11 0C4.93457 0 0 4.93457 0 11C0 17.0654 4.93457 22 11 22C17.0654 22 22 17.0654 22 11C22 4.93457 17.0654 0 11 0ZM16.5 12H12V16.5C12 17.0522 11.5522 17.5 11 17.5C10.4478 17.5 10 17.0522 10 16.5V12H5.5C4.94775 12 4.5 11.5522 4.5 11C4.5 10.4478 4.94775 10 5.5 10H10V5.5C10 4.94775 10.4478 4.5 11 4.5C11.5522 4.5 12 4.94775 12 5.5V10H16.5C17.0522 10 17.5 10.4478 17.5 11C17.5 11.5522 17.0522 12 16.5 12Z" fill="white"/>
</svg>
