<svg width="12" height="12" viewBox="0 0 12 12" fill="none" xmlns="http://www.w3.org/2000/svg">
<path d="M6 0C5.21207 -8.31019e-07 4.43185 0.155193 3.7039 0.456721C2.97594 0.758249 2.31451 1.20021 1.75736 1.75736C1.20021 2.31451 0.758249 2.97594 0.456721 3.7039C0.155193 4.43185 -8.31019e-07 5.21207 0 6C-8.31019e-07 6.78793 0.155193 7.56815 0.456721 8.2961C0.758249 9.02406 1.20021 9.68549 1.75736 10.2426C2.31451 10.7998 2.97594 11.2418 3.7039 11.5433C4.43185 11.8448 5.21207 12 6 12C6.78793 12 7.56815 11.8448 8.2961 11.5433C9.02406 11.2418 9.68549 10.7998 10.2426 10.2426C10.7998 9.68549 11.2418 9.02406 11.5433 8.2961C11.8448 7.56815 12 6.78793 12 6C12 5.21207 11.8448 4.43185 11.5433 3.7039C11.2418 2.97594 10.7998 2.31451 10.2426 1.75736C9.68549 1.20021 9.02406 0.758249 8.2961 0.456721C7.56815 0.155193 6.78793 -8.31019e-07 6 0ZM5.52246 2.88656H6.47754C6.63408 2.88656 6.76014 3.01256 6.76014 3.1691V5.23987H8.8309C8.98744 5.23987 9.11344 5.36592 9.11344 5.52246V6.47754C9.11344 6.63408 8.98744 6.76014 8.8309 6.76014H6.76014V8.8309C6.76014 8.98744 6.63408 9.11344 6.47754 9.11344H5.52246C5.36592 9.11344 5.23987 8.98744 5.23987 8.8309V6.76014H3.1691C3.01256 6.76014 2.88656 6.63408 2.88656 6.47754V5.52246C2.88656 5.36592 3.01256 5.23987 3.1691 5.23987H5.23987V3.1691C5.23987 3.01256 5.36592 2.88656 5.52246 2.88656Z" fill="#393939"/>
</svg>
