<svg width="22" height="22" viewBox="0 0 22 22" fill="none" xmlns="http://www.w3.org/2000/svg">
<path d="M1.95465 11.8772C1.94175 11.7494 1.90373 11.6253 1.84276 11.5122C1.78178 11.399 1.69905 11.2989 1.59929 11.2177C1.49953 11.1365 1.38469 11.0756 1.26136 11.0387C1.13802 11.0018 1.0086 10.9895 0.880498 11.0025C0.752393 11.0155 0.628117 11.0536 0.514776 11.1146C0.401435 11.1756 0.301251 11.2582 0.219955 11.3579C0.138659 11.4575 0.0778448 11.5722 0.0409894 11.6953C0.00413396 11.8184 -0.00803939 11.9476 0.00516534 12.0754C0.247069 14.5326 1.31042 16.8372 3.02409 18.6182C4.73777 20.3993 7.00212 21.5532 9.45277 21.8944C11.9034 22.2356 14.3979 21.7442 16.5347 20.4993C18.6715 19.2543 20.3264 17.3282 21.2332 15.0309C22.1399 12.7337 22.2457 10.1988 21.5336 7.83419C20.8215 5.46961 19.3328 3.41286 17.3071 1.99489C15.2815 0.576929 12.8366 -0.119784 10.3661 0.0168681C7.89545 0.15352 5.54277 1.11559 3.68658 2.74827L1.14145 0.20868C1.12433 0.191592 1.10252 0.179955 1.07877 0.17524C1.05502 0.170525 1.0304 0.172944 1.00803 0.182191C0.985654 0.191438 0.966533 0.207099 0.953082 0.227191C0.93963 0.247283 0.932453 0.270904 0.932457 0.295067V6.3664C0.932453 6.39864 0.938816 6.43057 0.951181 6.46037C0.963546 6.49016 0.98167 6.51723 1.00452 6.54003C1.02737 6.56284 1.0545 6.58092 1.08435 6.59326C1.11421 6.6056 1.14621 6.61196 1.17853 6.61195H6.96861C7.01695 6.61196 7.0642 6.59766 7.10439 6.57086C7.14458 6.54407 7.1759 6.50598 7.1944 6.46142C7.2129 6.41686 7.21774 6.36783 7.20831 6.32052C7.19888 6.27322 7.1756 6.22976 7.14143 6.19566L5.07558 4.13425C6.80614 2.64507 9.03955 1.86842 11.3228 1.9618C13.0616 2.02856 14.7443 2.59338 16.17 3.58879C17.5957 4.58419 18.7041 5.96811 19.3627 7.57519C20.0213 9.18228 20.2024 10.9446 19.8843 12.6516C19.5661 14.3586 18.7622 15.9381 17.5686 17.2015C16.3749 18.4648 14.8421 19.3586 13.1531 19.776C11.464 20.1934 9.69032 20.1168 8.04377 19.5554C6.39722 18.9939 4.94747 17.9713 3.8677 16.6098C2.78793 15.2482 2.1238 13.6053 1.95465 11.8772Z" fill="white"/>
<path d="M10.9748 4.0799C10.8462 4.07987 10.7188 4.10513 10.5999 4.15424C10.481 4.20334 10.373 4.27534 10.282 4.36611C10.191 4.45688 10.1188 4.56464 10.0696 4.68325C10.0204 4.80185 9.995 4.92898 9.995 5.05736V10.9984C9.995 11.2577 10.0982 11.5063 10.2819 11.6896L13.0628 14.4644C13.2468 14.6465 13.4956 14.7483 13.7547 14.7477C14.0138 14.7472 14.2621 14.6442 14.4453 14.4614C14.6286 14.2786 14.7317 14.0308 14.7323 13.7723C14.7329 13.5137 14.6308 13.2655 14.4484 13.0819L11.9545 10.5935V5.05736C11.9545 4.79812 11.8512 4.54949 11.6675 4.36618C11.4838 4.18287 11.2347 4.07989 10.9748 4.0799Z" fill="white"/>
</svg>
