<svg width="13" height="10" viewBox="0 0 13 10" fill="none" xmlns="http://www.w3.org/2000/svg">
<path d="M8.78292 0.00111627C8.74478 0.00569447 8.70964 0.0241013 8.68417 0.052855C8.65869 0.0816088 8.64465 0.11871 8.6447 0.157125V2.02031H4.61979C4.57848 2.02054 4.53893 2.03705 4.50972 2.06625C4.4805 2.09546 4.46398 2.13501 4.46375 2.17632V4.32924C4.46398 4.37055 4.4805 4.4101 4.50972 4.43931C4.53893 4.46851 4.57848 4.48502 4.61979 4.48525H8.6447V6.34845C8.64553 6.37908 8.6553 6.40881 8.67283 6.43395C8.69035 6.4591 8.71486 6.47856 8.74331 6.48994C8.77177 6.50132 8.80294 6.50411 8.83297 6.49798C8.863 6.49184 8.89057 6.47705 8.91229 6.45542L11.979 3.36199C12.0073 3.33271 12.0232 3.29355 12.0232 3.25278C12.0232 3.21201 12.0073 3.17285 11.979 3.14357L8.91229 0.0456901C8.89549 0.0289733 8.87513 0.0162796 8.85272 0.00855976C8.83031 0.000839868 8.80645 -0.0017057 8.78292 0.00111627ZM3.20683 3.50017C3.17145 3.50397 3.1384 3.51968 3.11312 3.54474L0.0464402 6.63817C0.0317253 6.65276 0.0200454 6.67011 0.0120746 6.68924C0.0041038 6.70836 0 6.72888 0 6.7496C0 6.77032 0.0041038 6.79083 0.0120746 6.80996C0.0200454 6.82909 0.0317253 6.84645 0.0464402 6.86104L3.11312 9.95446C3.13512 9.97628 3.16308 9.99112 3.19349 9.99708C3.2239 10.003 3.2554 9.99984 3.284 9.98792C3.3126 9.976 3.33704 9.95588 3.35422 9.9301C3.37141 9.90431 3.38057 9.87403 3.38057 9.84304V7.9843H7.40562C7.44693 7.98407 7.48648 7.96756 7.51569 7.93836C7.54491 7.90915 7.56143 7.86961 7.56167 7.8283V5.67537C7.56214 5.65454 7.55846 5.63382 7.55084 5.61443C7.54322 5.59504 7.53181 5.57736 7.51729 5.56242C7.50276 5.54748 7.48541 5.53559 7.46623 5.52743C7.44706 5.51927 7.42646 5.51502 7.40562 5.51491H3.38057V3.65617C3.38057 3.63415 3.37593 3.61237 3.36696 3.59226C3.35798 3.57214 3.34488 3.55414 3.32849 3.53943C3.3121 3.52471 3.2928 3.51361 3.27184 3.50684C3.25088 3.50008 3.22873 3.49781 3.20683 3.50017Z" fill="#8E8E8E"/>
</svg>
