<svg width="12" height="12" viewBox="0 0 12 12" fill="none" xmlns="http://www.w3.org/2000/svg">
<path d="M6.28906 3.36472C6.20412 3.22694 6.42954 3.10448 6.51449 3.24225L6.90326 3.87294L8.17412 2.68197C8.295 2.5687 8.48122 2.74015 8.35708 2.85649L6.9686 4.15767C6.90979 4.21278 6.80525 4.20054 6.76278 4.13318L6.28906 3.36472ZM0.450928 1.12055H9.2555V0H0.450928V1.12055ZM5.44618 3.677C5.61933 3.677 5.61933 3.92193 5.44618 3.92193H4.17858C4.00543 3.92193 4.00543 3.677 4.17858 3.677H5.44618ZM5.44618 2.92384C5.61933 2.92384 5.61933 3.16877 5.44618 3.16877H4.17858C4.00543 3.16877 4.00543 2.92384 4.17858 2.92384H5.44618ZM11.17 1.14811L10.5688 1.15117C10.4316 1.15117 10.3173 1.25832 10.3205 1.38691L10.3499 6.64064L10.9021 7.69384L11.4509 6.63452L11.4215 1.38079C11.4183 1.2522 11.3039 1.14811 11.17 1.14811ZM5.44618 6.67738C5.61933 6.67738 5.61933 6.92231 5.44618 6.92231H4.17858C4.00543 6.92231 4.00543 6.67738 4.17858 6.67738H5.44618ZM5.44618 5.92422C5.61933 5.92422 5.61933 6.16915 5.44618 6.16915H4.17858C4.00543 6.16915 4.00543 5.92422 4.17858 5.92422H5.44618ZM5.44618 9.67776C5.61933 9.67776 5.61933 9.92269 5.44618 9.92269H4.17858C4.00543 9.92269 4.00543 9.67776 4.17858 9.67776H5.44618ZM5.44618 8.92461C5.61933 8.92461 5.61933 9.16954 5.44618 9.16954H4.17858C4.00543 9.16954 4.00543 8.92461 4.17858 8.92461H5.44618ZM2.7803 3.48106L2.39479 2.85343L2.00602 3.48412L1.62051 4.11175H3.16907L2.7803 3.48106ZM2.51241 2.55645L3.50884 4.17298C3.56111 4.25564 3.49577 4.35668 3.39776 4.35668H1.39836C1.30362 4.35668 1.22847 4.25871 1.29055 4.1638L1.78387 3.36165L2.28372 2.55033C2.33272 2.4646 2.46667 2.47072 2.51241 2.55645ZM2.7803 6.48144L2.39479 5.85381L2.00602 6.4845L1.62051 7.11213H3.16907L2.7803 6.48144ZM2.51241 5.55683L3.50884 7.17336C3.56111 7.25603 3.49577 7.35706 3.39776 7.35706H1.39836C1.30362 7.35706 1.22847 7.25909 1.29055 7.16418L1.78387 6.36204L2.28372 5.55071C2.33272 5.46498 2.46667 5.47111 2.51241 5.55683ZM2.15304 9.90738H0.637147L2.1563 11.331V9.90738H2.15304ZM1.89494 9.66246H2.28372C2.35559 9.66246 2.4144 9.71756 2.4144 9.78492V10.1095H3.16581L2.39153 8.85419L2.00602 9.48488L1.89494 9.66246ZM9.84356 8.71029C9.03988 7.95714 7.73634 7.95714 6.93593 8.71029C6.13225 9.46345 6.13225 10.682 6.93593 11.4351C7.73961 12.1883 9.04315 12.1883 9.84356 11.4351C10.6472 10.685 10.6472 9.46345 9.84356 8.71029ZM8.38975 7.90203C8.69684 7.90203 8.98761 7.95714 9.25877 8.05817V1.36548H0.450928V9.66246H1.59438L1.7806 9.35936L2.28045 8.54803C2.32945 8.46843 2.45687 8.4623 2.50914 8.55415L3.50558 10.1707C3.55785 10.2533 3.49251 10.3544 3.3945 10.3544H2.4144V11.5025H6.6419C5.83822 10.6422 5.88722 9.34405 6.74971 8.53578C7.16789 8.1439 7.74941 7.90203 8.38975 7.90203ZM7.30183 10.036C7.21689 9.8982 7.44231 9.77574 7.52726 9.91351L7.9095 10.532L9.15423 9.36548C9.2751 9.2522 9.46132 9.42365 9.34044 9.53999L7.97484 10.8197C7.91603 10.8749 7.81149 10.8626 7.76901 10.7953L7.30183 10.036ZM6.28906 6.3651C6.20412 6.22732 6.42954 6.10486 6.51449 6.24263L6.90326 6.87333L8.17412 5.68236C8.295 5.56908 8.48122 5.74053 8.35708 5.85687L6.9686 7.15806C6.90979 7.21316 6.80525 7.20092 6.76278 7.13356L6.28906 6.3651Z" fill="#8E8E8E"/>
</svg>
