<svg width="13" height="12" viewBox="0 0 13 12" fill="none" xmlns="http://www.w3.org/2000/svg">
<path d="M4.32858 6.92577L2.70001 6.11157V7.94725L4.32858 8.76141V6.92577Z" fill="#8E8E8E"/>
<path d="M3.6598 1.29918C3.65701 1.29772 3.65446 1.29598 3.65174 1.29443L1.13593 2.43782L1.92087 2.86591L6.50003 5.36326L8.91002 4.04892L3.6598 1.29918Z" fill="#8E8E8E"/>
<path d="M0.800049 2.87305V9.03949L6.22862 12.0001V5.83366L4.47989 4.87991L0.800049 2.87305ZM4.87148 6.75811V9.20061C4.87148 9.29468 4.82278 9.38204 4.74274 9.43148C4.69915 9.45841 4.64967 9.472 4.60002 9.472C4.55855 9.472 4.51697 9.4625 4.47864 9.44334L2.30721 8.35779C2.21528 8.31182 2.15719 8.21786 2.15719 8.11506V5.67256C2.15719 5.5785 2.20589 5.49114 2.28593 5.44172C2.36595 5.39227 2.46586 5.38779 2.55 5.42983L4.72143 6.51538C4.81339 6.56136 4.87148 6.65531 4.87148 6.75811Z" fill="#1C1C1C"/>
<path d="M11.8642 2.43789L6.50005 0L4.27759 1.01006L9.48315 3.7364L11.8642 2.43789Z" fill="#8E8E8E"/>
<path d="M7.37468 5.5047L6.77148 5.83366V12.0001L12.2001 9.03949V2.87305L7.37468 5.5047ZM9.44017 7.18004C9.35703 7.3048 9.18853 7.33848 9.06378 7.2553L8.67148 6.99382V9.472C8.67148 9.62186 8.54997 9.74339 8.40006 9.74339C8.25015 9.74339 8.12863 9.62186 8.12863 9.472V7.30089L7.80291 7.73511C7.74958 7.80619 7.66807 7.8437 7.58555 7.8437C7.52888 7.8437 7.47174 7.82603 7.42291 7.78939C7.303 7.69945 7.27868 7.52935 7.36863 7.40945L8.18291 6.32389C8.18386 6.32262 8.18498 6.3215 8.18595 6.32023C8.18788 6.31773 8.18997 6.31534 8.19203 6.3129C8.19741 6.3065 8.20297 6.30034 8.20881 6.29453C8.2109 6.29247 8.21293 6.29038 8.21508 6.28837C8.2318 6.27274 8.25015 6.25952 8.26966 6.24885C8.27048 6.24842 8.27118 6.24785 8.27197 6.24742C8.27316 6.24679 8.27441 6.24641 8.27561 6.24576C8.28426 6.24131 8.29311 6.23732 8.30212 6.23382C8.30394 6.23314 8.30576 6.2323 8.30758 6.23165C8.31795 6.2279 8.32848 6.22478 8.33917 6.22231C8.34143 6.2218 8.34368 6.22147 8.34593 6.22101C8.35456 6.21927 8.36325 6.21794 8.37199 6.21702C8.37492 6.21672 8.37783 6.21642 8.38076 6.21621C8.40258 6.21463 8.42454 6.21569 8.44628 6.21943C8.44859 6.21984 8.45084 6.22033 8.45312 6.22079C8.46235 6.22261 8.47147 6.22494 8.48053 6.22777C8.48238 6.22834 8.48425 6.22883 8.4861 6.22942C8.49682 6.233 8.50741 6.23718 8.51775 6.2422C8.51867 6.24264 8.51951 6.24318 8.52043 6.24364C8.52936 6.24807 8.5381 6.25314 8.54668 6.25868C8.54796 6.25946 8.54934 6.26006 8.55062 6.2609L9.3649 6.80368C9.48962 6.88683 9.52336 7.05534 9.44017 7.18004ZM11.6116 6.09449C11.5285 6.21922 11.3599 6.25292 11.2352 6.16974L10.8429 5.90826V8.38645C10.8429 8.53631 10.7214 8.65784 10.5715 8.65784C10.4216 8.65784 10.3001 8.53631 10.3001 8.38645V6.21534L9.97434 6.64956C9.92101 6.72064 9.8395 6.75814 9.75698 6.75814C9.70031 6.75814 9.64317 6.74047 9.59434 6.70384C9.47443 6.6139 9.4501 6.44379 9.54006 6.32389L10.3543 5.23834C10.3553 5.23709 10.3564 5.236 10.3573 5.23475C10.3593 5.23215 10.3615 5.22971 10.3636 5.22718C10.3689 5.22089 10.3743 5.21489 10.38 5.20916C10.3822 5.20696 10.3844 5.20479 10.3866 5.20268C10.4032 5.18721 10.4214 5.17413 10.4407 5.16351C10.4417 5.163 10.4424 5.16238 10.4434 5.16186C10.4447 5.16115 10.4462 5.16069 10.4475 5.16001C10.4559 5.15573 10.4644 5.15187 10.4731 5.14851C10.4751 5.14772 10.4771 5.1468 10.4792 5.14606C10.4894 5.14237 10.4999 5.13928 10.5104 5.13684C10.5129 5.13629 10.5153 5.13594 10.5177 5.13545C10.5261 5.13374 10.5346 5.13244 10.5432 5.13155C10.5462 5.13122 10.5493 5.13089 10.5523 5.13068C10.574 5.12913 10.5959 5.13016 10.6175 5.13388C10.6199 5.13431 10.6224 5.13483 10.6248 5.13532C10.6338 5.13711 10.6427 5.13936 10.6515 5.1421C10.6536 5.14273 10.6556 5.14327 10.6577 5.14395C10.6683 5.1475 10.6788 5.15166 10.689 5.15659C10.6901 5.15714 10.6912 5.15779 10.6922 5.15833C10.701 5.1627 10.7096 5.16764 10.718 5.17304C10.7193 5.17388 10.7207 5.17445 10.722 5.17532L11.5363 5.7181C11.6611 5.80128 11.6948 5.96976 11.6116 6.09449Z" fill="#1C1C1C"/>
</svg>
