<svg width="12" height="12" viewBox="0 0 12 12" fill="current" xmlns="http://www.w3.org/2000/svg">
<path fill-rule="evenodd" clip-rule="evenodd" d="M2.64163 0C1.1827 0 0 1.2042 0 2.68966V9.31034C0 10.7958 1.1827 12 2.64163 12H9.14409C10.603 12 11.7857 10.7958 11.7857 9.31034V2.68966C11.7857 1.2042 10.603 0 9.14409 0H2.64163ZM0.406404 2.68966C0.406404 1.43273 1.40715 0.413793 2.64163 0.413793H5.68966V5.7931H0.406404V2.68966ZM11.3793 5.7931H6.09606V0.413793H9.14409C10.3786 0.413793 11.3793 1.43273 11.3793 2.68966V5.7931ZM11.3793 6.2069V9.31034C11.3793 10.5673 10.3786 11.5862 9.14409 11.5862H2.64163C1.40715 11.5862 0.406404 10.5673 0.406404 9.31034V6.2069H11.3793ZM8.6638 1.7116C8.6638 1.56617 8.77959 1.44828 8.9224 1.44828C9.06525 1.44828 9.18103 1.56617 9.18103 1.7116V5.17241H8.6638V1.7116ZM7.11207 3.06583C7.11207 2.9204 7.22785 2.80251 7.3707 2.80251C7.51351 2.80251 7.6293 2.9204 7.6293 3.06583V5.17241H7.11207V3.06583ZM9.43967 3.06583C9.43967 2.9204 9.55545 2.80251 9.6983 2.80251C9.84111 2.80251 9.9569 2.9204 9.9569 3.06583V5.17241H9.43967V3.06583ZM8.14653 3.47962C8.00372 3.47962 7.88793 3.59752 7.88793 3.74297V5.17241H8.40517V3.74297C8.40517 3.59752 8.28938 3.47962 8.14653 3.47962ZM3.87555 1.46324C4.22254 1.5556 4.53096 1.75956 4.75493 2.04479C4.9789 2.33002 5.10642 2.68126 5.11854 3.04622L3.45443 3.10345L3.87555 1.46324ZM4.75253 3.45638C4.75253 3.80479 4.64707 4.14476 4.45057 4.42999C4.25403 4.71521 3.97601 4.93188 3.65426 5.05047C3.33249 5.16906 2.98266 5.18383 2.65235 5.0928C2.32205 5.00177 2.02733 4.80931 1.80828 4.54163C1.58923 4.27394 1.45649 3.94407 1.42814 3.59686C1.39979 3.24963 1.47719 2.90196 1.64982 2.60113C1.82245 2.3003 2.08191 2.06093 2.39291 1.9156C2.70391 1.77026 3.05133 1.72602 3.38791 1.78889L3.08746 3.45638H4.75253ZM2.64163 9.51724C2.64163 9.63149 2.55065 9.72414 2.43842 9.72414C2.3262 9.72414 2.23522 9.63149 2.23522 9.51724C2.23522 9.40299 2.3262 9.31034 2.43842 9.31034C2.55065 9.31034 2.64163 9.40299 2.64163 9.51724ZM4.26724 7.86207C4.26724 7.97632 4.17625 8.06897 4.06404 8.06897C3.95183 8.06897 3.86084 7.97632 3.86084 7.86207C3.86084 7.74782 3.95183 7.65517 4.06404 7.65517C4.17625 7.65517 4.26724 7.74782 4.26724 7.86207ZM7.92488 9.93104C7.92488 10.0453 7.83388 10.1379 7.72168 10.1379C7.60947 10.1379 7.51847 10.0453 7.51847 9.93104C7.51847 9.81679 7.60947 9.72414 7.72168 9.72414C7.83388 9.72414 7.92488 9.81679 7.92488 9.93104ZM9.9569 7.86207C9.9569 7.97632 9.8659 8.06897 9.75369 8.06897C9.64149 8.06897 9.55049 7.97632 9.55049 7.86207C9.55049 7.74782 9.64149 7.65517 9.75369 7.65517C9.8659 7.65517 9.9569 7.74782 9.9569 7.86207ZM4.67365 7.86207C4.67365 7.89041 4.67178 7.91835 4.66816 7.9457L7.30377 9.47913C7.41289 9.37448 7.55993 9.31034 7.72168 9.31034C7.8642 9.31034 7.99535 9.36017 8.09914 9.44363L9.21253 8.14804C9.1688 8.06247 9.14409 7.96523 9.14409 7.86207C9.14409 7.51928 9.41703 7.24138 9.75369 7.24138C10.0904 7.24138 10.3633 7.51928 10.3633 7.86207C10.3633 8.20486 10.0904 8.48276 9.75369 8.48276C9.66685 8.48276 9.58422 8.46426 9.50945 8.43091L8.32055 9.81439C8.32758 9.85217 8.33128 9.89114 8.33128 9.93104C8.33128 10.2738 8.05834 10.5517 7.72168 10.5517C7.38501 10.5517 7.11207 10.2738 7.11207 9.93104C7.11207 9.90269 7.11394 9.87476 7.11756 9.84741L4.48195 8.31397C4.37283 8.41862 4.22579 8.48276 4.06404 8.48276C3.96992 8.48276 3.88079 8.46103 3.80122 8.42226L2.98862 9.24964C3.0267 9.33066 3.04803 9.42141 3.04803 9.51724C3.04803 9.86003 2.7751 10.1379 2.43842 10.1379C2.10175 10.1379 1.82882 9.86003 1.82882 9.51724C1.82882 9.17446 2.10175 8.89655 2.43842 8.89655C2.53253 8.89655 2.62167 8.91828 2.70125 8.95705L3.51385 8.12967C3.47577 8.04865 3.45443 7.9579 3.45443 7.86207C3.45443 7.51928 3.72737 7.24138 4.06404 7.24138C4.4007 7.24138 4.67365 7.51928 4.67365 7.86207Z" fill="current"/>
</svg>
