<svg width="19" height="20" viewBox="0 0 19 20" fill="none" xmlns="http://www.w3.org/2000/svg">
<g filter="url(#filter0_d_1753_2269)">
<path d="M8.3412 0C8.06798 0 7.85547 0.210006 7.85547 0.480014V0.735021H10.1779V0.480014C10.1779 0.225007 9.96535 0 9.69213 0H8.3412Z" fill="white"/>
<path d="M13.3958 1.14001H4.6527C4.2884 1.14001 4 1.42502 4 1.78503V1.93504H14.0485V1.78503C14.0485 1.44002 13.7449 1.14001 13.3958 1.14001Z" fill="white"/>
<path d="M4.8197 10.47C4.8197 11.31 5.51794 12 6.36796 12H11.6958C12.5458 12 13.2441 11.31 13.2441 10.47V2.35474H4.8197V10.47ZM10.8306 3.98978C10.8306 3.86978 10.9217 3.77978 11.0431 3.77978C11.1645 3.77978 11.2556 3.86978 11.2556 3.98978V9.37494C11.2556 9.49494 11.1645 9.58495 11.0431 9.58495C10.9368 9.58495 10.8306 9.49494 10.8306 9.37494V3.98978ZM8.81178 3.98978C8.81178 3.86978 8.90286 3.77978 9.02429 3.77978C9.14572 3.77978 9.2368 3.86978 9.2368 3.98978V9.37494C9.2368 9.49494 9.14572 9.58495 9.02429 9.58495C8.91804 9.58495 8.81178 9.49494 8.81178 9.37494V3.98978ZM6.79297 3.98978C6.79297 3.86978 6.88405 3.77978 7.00548 3.77978C7.12691 3.77978 7.21799 3.86978 7.21799 3.98978V9.37494C7.21799 9.49494 7.12691 9.58495 7.00548 9.58495C6.88405 9.58495 6.79297 9.49494 6.79297 9.37494V3.98978Z" fill="white"/>
</g>
<defs>
<filter id="filter0_d_1753_2269" x="0" y="0" width="18.0485" height="20" filterUnits="userSpaceOnUse" color-interpolation-filters="sRGB">
<feFlood flood-opacity="0" result="BackgroundImageFix"/>
<feColorMatrix in="SourceAlpha" type="matrix" values="0 0 0 0 0 0 0 0 0 0 0 0 0 0 0 0 0 0 127 0" result="hardAlpha"/>
<feOffset dy="4"/>
<feGaussianBlur stdDeviation="2"/>
<feComposite in2="hardAlpha" operator="out"/>
<feColorMatrix type="matrix" values="0 0 0 0 0 0 0 0 0 0 0 0 0 0 0 0 0 0 1 0"/>
<feBlend mode="normal" in2="BackgroundImageFix" result="effect1_dropShadow_1753_2269"/>
<feBlend mode="normal" in="SourceGraphic" in2="effect1_dropShadow_1753_2269" result="shape"/>
</filter>
</defs>
</svg>
