<svg width="20" height="20" viewBox="0 0 20 20" fill="none" xmlns="http://www.w3.org/2000/svg">
<g filter="url(#filter0_d_1753_2263)">
<path d="M15.7469 2.99961L14.9258 3.82564L14.324 3.21042L12.785 1.67451L12.1746 1.06789L12.9914 0.250465C13.0967 0.149689 13.2248 0.0759225 13.3648 0.0354663C13.5048 -0.00499003 13.6525 -0.0109338 13.7952 0.0181424C14.072 0.0703711 14.3258 0.207145 14.5217 0.409648L15.6136 1.47661C15.7224 1.56776 15.8122 1.6795 15.8778 1.80542C15.9434 1.93134 15.9835 2.06898 15.9959 2.21045C16.0083 2.35191 15.9926 2.49443 15.9499 2.62985C15.9072 2.76527 15.8382 2.89092 15.7469 2.99961ZM12.1746 2.28543L11.5685 1.67451L4.58736 8.66139C4.52568 8.72501 4.48514 8.80615 4.47129 8.89371L4.00703 11.4923C3.99557 11.5549 3.99814 11.6193 4.01455 11.6808C4.03096 11.7423 4.0608 11.7994 4.10192 11.8479C4.14305 11.8965 4.19442 11.9353 4.25235 11.9616C4.31028 11.9879 4.37331 12.001 4.4369 11.9999H4.50998L7.11072 11.5439C7.19674 11.5268 7.27591 11.4849 7.33855 11.4234L14.324 4.42796L13.7093 3.82564L12.1746 2.28543Z" fill="white"/>
</g>
<defs>
<filter id="filter0_d_1753_2263" x="0" y="0" width="20" height="20" filterUnits="userSpaceOnUse" color-interpolation-filters="sRGB">
<feFlood flood-opacity="0" result="BackgroundImageFix"/>
<feColorMatrix in="SourceAlpha" type="matrix" values="0 0 0 0 0 0 0 0 0 0 0 0 0 0 0 0 0 0 127 0" result="hardAlpha"/>
<feOffset dy="4"/>
<feGaussianBlur stdDeviation="2"/>
<feComposite in2="hardAlpha" operator="out"/>
<feColorMatrix type="matrix" values="0 0 0 0 0 0 0 0 0 0 0 0 0 0 0 0 0 0 1 0"/>
<feBlend mode="normal" in2="BackgroundImageFix" result="effect1_dropShadow_1753_2263"/>
<feBlend mode="normal" in="SourceGraphic" in2="effect1_dropShadow_1753_2263" result="shape"/>
</filter>
</defs>
</svg>
