<svg width="449" height="186" viewBox="0 0 449 186" fill="none" xmlns="http://www.w3.org/2000/svg">
<g clip-path="url(#clip0_1911_620)">
<mask id="path-1-inside-1_1911_620" fill="white">
<path d="M21 0H449V170H21V0Z"/>
</mask>
<path d="M21 18H235C236.105 18 237 18.8954 237 20V34C237 35.1046 236.105 36 235 36H21V18Z" fill="#555555"/>
<path d="M21 56H161C162.105 56 163 56.8954 163 58V72C163 73.1046 162.105 74 161 74H21V56Z" fill="#393939"/>
<path d="M21 94H368C369.105 94 370 94.8954 370 96V110C370 111.105 369.105 112 368 112H21V94Z" fill="#555555"/>
<path d="M21 132H304C305.105 132 306 132.895 306 134V148C306 149.105 305.105 150 304 150H21V132Z" fill="#393939"/>
<line x1="22" y1="162" x2="22" y2="172" stroke="#393939" stroke-width="2"/>
<line x1="63" y1="162" x2="63" y2="172" stroke="#393939" stroke-width="2"/>
<line x1="104" y1="162" x2="104" y2="172" stroke="#393939" stroke-width="2"/>
<line x1="145" y1="162" x2="145" y2="172" stroke="#393939" stroke-width="2"/>
<line x1="186" y1="162" x2="186" y2="172" stroke="#393939" stroke-width="2"/>
<line x1="227" y1="162" x2="227" y2="172" stroke="#393939" stroke-width="2"/>
<line x1="268" y1="162" x2="268" y2="172" stroke="#393939" stroke-width="2"/>
<line x1="309" y1="162" x2="309" y2="172" stroke="#393939" stroke-width="2"/>
<line x1="350" y1="162" x2="350" y2="172" stroke="#393939" stroke-width="2"/>
<line x1="391" y1="162" x2="391" y2="172" stroke="#393939" stroke-width="2"/>
<line x1="432" y1="162" x2="432" y2="172" stroke="#393939" stroke-width="2"/>
<path d="M316.847 137.75V136.71H318.927V144H317.777V137.75H316.847ZM321.124 142.45C321.764 141.897 322.267 141.443 322.634 141.09C323.007 140.73 323.317 140.357 323.564 139.97C323.81 139.583 323.934 139.197 323.934 138.81C323.934 138.41 323.837 138.097 323.644 137.87C323.457 137.643 323.16 137.53 322.754 137.53C322.36 137.53 322.054 137.657 321.834 137.91C321.62 138.157 321.507 138.49 321.494 138.91H320.394C320.414 138.15 320.64 137.57 321.074 137.17C321.514 136.763 322.07 136.56 322.744 136.56C323.47 136.56 324.037 136.76 324.444 137.16C324.857 137.56 325.064 138.093 325.064 138.76C325.064 139.24 324.94 139.703 324.694 140.15C324.454 140.59 324.164 140.987 323.824 141.34C323.49 141.687 323.064 142.09 322.544 142.55L322.094 142.95H325.264V143.9H320.404V143.07L321.124 142.45ZM326.245 138.51C326.285 137.89 326.522 137.407 326.955 137.06C327.395 136.713 327.955 136.54 328.635 136.54C329.102 136.54 329.505 136.623 329.845 136.79C330.185 136.957 330.442 137.183 330.615 137.47C330.788 137.757 330.875 138.08 330.875 138.44C330.875 138.853 330.765 139.207 330.545 139.5C330.325 139.793 330.062 139.99 329.755 140.09V140.13C330.148 140.25 330.455 140.47 330.675 140.79C330.895 141.103 331.005 141.507 331.005 142C331.005 142.393 330.915 142.743 330.735 143.05C330.555 143.357 330.288 143.6 329.935 143.78C329.582 143.953 329.158 144.04 328.665 144.04C327.945 144.04 327.352 143.857 326.885 143.49C326.425 143.117 326.178 142.583 326.145 141.89H327.245C327.272 142.243 327.408 142.533 327.655 142.76C327.902 142.98 328.235 143.09 328.655 143.09C329.062 143.09 329.375 142.98 329.595 142.76C329.815 142.533 329.925 142.243 329.925 141.89C329.925 141.423 329.775 141.093 329.475 140.9C329.182 140.7 328.728 140.6 328.115 140.6H327.855V139.66H328.125C328.665 139.653 329.075 139.563 329.355 139.39C329.642 139.217 329.785 138.943 329.785 138.57C329.785 138.25 329.682 137.997 329.475 137.81C329.268 137.617 328.975 137.52 328.595 137.52C328.222 137.52 327.932 137.617 327.725 137.81C327.518 137.997 327.395 138.23 327.355 138.51H326.245Z" fill="black"/>
<path d="M380.847 99.75V98.71H382.927V106H381.777V99.75H380.847ZM385.124 104.45C385.764 103.897 386.267 103.443 386.634 103.09C387.007 102.73 387.317 102.357 387.564 101.97C387.81 101.583 387.934 101.197 387.934 100.81C387.934 100.41 387.837 100.097 387.644 99.87C387.457 99.6433 387.16 99.53 386.754 99.53C386.36 99.53 386.054 99.6567 385.834 99.91C385.62 100.157 385.507 100.49 385.494 100.91H384.394C384.414 100.15 384.64 99.57 385.074 99.17C385.514 98.7633 386.07 98.56 386.744 98.56C387.47 98.56 388.037 98.76 388.444 99.16C388.857 99.56 389.064 100.093 389.064 100.76C389.064 101.24 388.94 101.703 388.694 102.15C388.454 102.59 388.164 102.987 387.824 103.34C387.49 103.687 387.064 104.09 386.544 104.55L386.094 104.95H389.264V105.9H384.404V105.07L385.124 104.45ZM390.245 100.51C390.285 99.89 390.522 99.4067 390.955 99.06C391.395 98.7133 391.955 98.54 392.635 98.54C393.102 98.54 393.505 98.6233 393.845 98.79C394.185 98.9567 394.442 99.1833 394.615 99.47C394.788 99.7567 394.875 100.08 394.875 100.44C394.875 100.853 394.765 101.207 394.545 101.5C394.325 101.793 394.062 101.99 393.755 102.09V102.13C394.148 102.25 394.455 102.47 394.675 102.79C394.895 103.103 395.005 103.507 395.005 104C395.005 104.393 394.915 104.743 394.735 105.05C394.555 105.357 394.288 105.6 393.935 105.78C393.582 105.953 393.158 106.04 392.665 106.04C391.945 106.04 391.352 105.857 390.885 105.49C390.425 105.117 390.178 104.583 390.145 103.89H391.245C391.272 104.243 391.408 104.533 391.655 104.76C391.902 104.98 392.235 105.09 392.655 105.09C393.062 105.09 393.375 104.98 393.595 104.76C393.815 104.533 393.925 104.243 393.925 103.89C393.925 103.423 393.775 103.093 393.475 102.9C393.182 102.7 392.728 102.6 392.115 102.6H391.855V101.66H392.125C392.665 101.653 393.075 101.563 393.355 101.39C393.642 101.217 393.785 100.943 393.785 100.57C393.785 100.25 393.682 99.9967 393.475 99.81C393.268 99.6167 392.975 99.52 392.595 99.52C392.222 99.52 391.932 99.6167 391.725 99.81C391.518 99.9967 391.395 100.23 391.355 100.51H390.245Z" fill="black"/>
<path d="M173.847 61.75V60.71H175.927V68H174.777V61.75H173.847ZM178.124 66.45C178.764 65.8967 179.267 65.4433 179.634 65.09C180.007 64.73 180.317 64.3567 180.564 63.97C180.81 63.5833 180.934 63.1967 180.934 62.81C180.934 62.41 180.837 62.0967 180.644 61.87C180.457 61.6433 180.16 61.53 179.754 61.53C179.36 61.53 179.054 61.6567 178.834 61.91C178.62 62.1567 178.507 62.49 178.494 62.91H177.394C177.414 62.15 177.64 61.57 178.074 61.17C178.514 60.7633 179.07 60.56 179.744 60.56C180.47 60.56 181.037 60.76 181.444 61.16C181.857 61.56 182.064 62.0933 182.064 62.76C182.064 63.24 181.94 63.7033 181.694 64.15C181.454 64.59 181.164 64.9867 180.824 65.34C180.49 65.6867 180.064 66.09 179.544 66.55L179.094 66.95H182.264V67.9H177.404V67.07L178.124 66.45ZM183.245 62.51C183.285 61.89 183.522 61.4067 183.955 61.06C184.395 60.7133 184.955 60.54 185.635 60.54C186.102 60.54 186.505 60.6233 186.845 60.79C187.185 60.9567 187.442 61.1833 187.615 61.47C187.788 61.7567 187.875 62.08 187.875 62.44C187.875 62.8533 187.765 63.2067 187.545 63.5C187.325 63.7933 187.062 63.99 186.755 64.09V64.13C187.148 64.25 187.455 64.47 187.675 64.79C187.895 65.1033 188.005 65.5067 188.005 66C188.005 66.3933 187.915 66.7433 187.735 67.05C187.555 67.3567 187.288 67.6 186.935 67.78C186.582 67.9533 186.158 68.04 185.665 68.04C184.945 68.04 184.352 67.8567 183.885 67.49C183.425 67.1167 183.178 66.5833 183.145 65.89H184.245C184.272 66.2433 184.408 66.5333 184.655 66.76C184.902 66.98 185.235 67.09 185.655 67.09C186.062 67.09 186.375 66.98 186.595 66.76C186.815 66.5333 186.925 66.2433 186.925 65.89C186.925 65.4233 186.775 65.0933 186.475 64.9C186.182 64.7 185.728 64.6 185.115 64.6H184.855V63.66H185.125C185.665 63.6533 186.075 63.5633 186.355 63.39C186.642 63.2167 186.785 62.9433 186.785 62.57C186.785 62.25 186.682 61.9967 186.475 61.81C186.268 61.6167 185.975 61.52 185.595 61.52C185.222 61.52 184.932 61.6167 184.725 61.81C184.518 61.9967 184.395 62.23 184.355 62.51H183.245Z" fill="black"/>
<path d="M247.847 23.75V22.71H249.927V30H248.777V23.75H247.847ZM252.124 28.45C252.764 27.8967 253.267 27.4433 253.634 27.09C254.007 26.73 254.317 26.3567 254.564 25.97C254.81 25.5833 254.934 25.1967 254.934 24.81C254.934 24.41 254.837 24.0967 254.644 23.87C254.457 23.6433 254.16 23.53 253.754 23.53C253.36 23.53 253.054 23.6567 252.834 23.91C252.62 24.1567 252.507 24.49 252.494 24.91H251.394C251.414 24.15 251.64 23.57 252.074 23.17C252.514 22.7633 253.07 22.56 253.744 22.56C254.47 22.56 255.037 22.76 255.444 23.16C255.857 23.56 256.064 24.0933 256.064 24.76C256.064 25.24 255.94 25.7033 255.694 26.15C255.454 26.59 255.164 26.9867 254.824 27.34C254.49 27.6867 254.064 28.09 253.544 28.55L253.094 28.95H256.264V29.9H251.404V29.07L252.124 28.45ZM257.245 24.51C257.285 23.89 257.522 23.4067 257.955 23.06C258.395 22.7133 258.955 22.54 259.635 22.54C260.102 22.54 260.505 22.6233 260.845 22.79C261.185 22.9567 261.442 23.1833 261.615 23.47C261.788 23.7567 261.875 24.08 261.875 24.44C261.875 24.8533 261.765 25.2067 261.545 25.5C261.325 25.7933 261.062 25.99 260.755 26.09V26.13C261.148 26.25 261.455 26.47 261.675 26.79C261.895 27.1033 262.005 27.5067 262.005 28C262.005 28.3933 261.915 28.7433 261.735 29.05C261.555 29.3567 261.288 29.6 260.935 29.78C260.582 29.9533 260.158 30.04 259.665 30.04C258.945 30.04 258.352 29.8567 257.885 29.49C257.425 29.1167 257.178 28.5833 257.145 27.89H258.245C258.272 28.2433 258.408 28.5333 258.655 28.76C258.902 28.98 259.235 29.09 259.655 29.09C260.062 29.09 260.375 28.98 260.595 28.76C260.815 28.5333 260.925 28.2433 260.925 27.89C260.925 27.4233 260.775 27.0933 260.475 26.9C260.182 26.7 259.728 26.6 259.115 26.6H258.855V25.66H259.125C259.665 25.6533 260.075 25.5633 260.355 25.39C260.642 25.2167 260.785 24.9433 260.785 24.57C260.785 24.25 260.682 23.9967 260.475 23.81C260.268 23.6167 259.975 23.52 259.595 23.52C259.222 23.52 258.932 23.6167 258.725 23.81C258.518 23.9967 258.395 24.23 258.355 24.51H257.245Z" fill="black"/>
</g>
<path d="M21 170H18V173H21V170ZM449 167H21V173H449V167ZM24 170V0H18V170H24Z" fill="#393939" mask="url(#path-1-inside-1_1911_620)"/>
<path d="M18.9175 180.008C18.9175 179.085 19.0722 178.365 19.3815 177.848C19.6962 177.325 20.2348 177.064 20.9975 177.064C21.7602 177.064 22.2962 177.325 22.6055 177.848C22.9202 178.365 23.0775 179.085 23.0775 180.008C23.0775 180.941 22.9202 181.672 22.6055 182.2C22.2962 182.723 21.7602 182.984 20.9975 182.984C20.2348 182.984 19.6962 182.723 19.3815 182.2C19.0722 181.672 18.9175 180.941 18.9175 180.008ZM22.1815 180.008C22.1815 179.576 22.1522 179.211 22.0935 178.912C22.0402 178.613 21.9282 178.371 21.7575 178.184C21.5868 177.992 21.3335 177.896 20.9975 177.896C20.6615 177.896 20.4082 177.992 20.2375 178.184C20.0668 178.371 19.9522 178.613 19.8935 178.912C19.8402 179.211 19.8135 179.576 19.8135 180.008C19.8135 180.456 19.8402 180.832 19.8935 181.136C19.9468 181.44 20.0588 181.685 20.2295 181.872C20.4055 182.059 20.6615 182.152 20.9975 182.152C21.3335 182.152 21.5868 182.059 21.7575 181.872C21.9335 181.685 22.0482 181.44 22.1015 181.136C22.1548 180.832 22.1815 180.456 22.1815 180.008Z" fill="black"/>
<path d="M55.8366 178V177.168H57.5006V183H56.5806V178H55.8366ZM58.7534 180.008C58.7534 179.085 58.9081 178.365 59.2174 177.848C59.5321 177.325 60.0708 177.064 60.8334 177.064C61.5961 177.064 62.1321 177.325 62.4414 177.848C62.7561 178.365 62.9134 179.085 62.9134 180.008C62.9134 180.941 62.7561 181.672 62.4414 182.2C62.1321 182.723 61.5961 182.984 60.8334 182.984C60.0708 182.984 59.5321 182.723 59.2174 182.2C58.9081 181.672 58.7534 180.941 58.7534 180.008ZM62.0174 180.008C62.0174 179.576 61.9881 179.211 61.9294 178.912C61.8761 178.613 61.7641 178.371 61.5934 178.184C61.4228 177.992 61.1694 177.896 60.8334 177.896C60.4974 177.896 60.2441 177.992 60.0734 178.184C59.9028 178.371 59.7881 178.613 59.7294 178.912C59.6761 179.211 59.6494 179.576 59.6494 180.008C59.6494 180.456 59.6761 180.832 59.7294 181.136C59.7828 181.44 59.8948 181.685 60.0654 181.872C60.2414 182.059 60.4974 182.152 60.8334 182.152C61.1694 182.152 61.4228 182.059 61.5934 181.872C61.7694 181.685 61.8841 181.44 61.9374 181.136C61.9908 180.832 62.0174 180.456 62.0174 180.008ZM63.8784 180.008C63.8784 179.085 64.0331 178.365 64.3424 177.848C64.6571 177.325 65.1958 177.064 65.9584 177.064C66.7211 177.064 67.2571 177.325 67.5664 177.848C67.8811 178.365 68.0384 179.085 68.0384 180.008C68.0384 180.941 67.8811 181.672 67.5664 182.2C67.2571 182.723 66.7211 182.984 65.9584 182.984C65.1958 182.984 64.6571 182.723 64.3424 182.2C64.0331 181.672 63.8784 180.941 63.8784 180.008ZM67.1424 180.008C67.1424 179.576 67.1131 179.211 67.0544 178.912C67.0011 178.613 66.8891 178.371 66.7184 178.184C66.5478 177.992 66.2944 177.896 65.9584 177.896C65.6224 177.896 65.3691 177.992 65.1984 178.184C65.0278 178.371 64.9131 178.613 64.8544 178.912C64.8011 179.211 64.7744 179.576 64.7744 180.008C64.7744 180.456 64.8011 180.832 64.8544 181.136C64.9078 181.44 65.0198 181.685 65.1904 181.872C65.3664 182.059 65.6224 182.152 65.9584 182.152C66.2944 182.152 66.5478 182.059 66.7184 181.872C66.8944 181.685 67.0091 181.44 67.0624 181.136C67.1158 180.832 67.1424 180.456 67.1424 180.008Z" fill="black"/>
<path d="M96.0504 181.76C96.5624 181.317 96.9651 180.955 97.2584 180.672C97.5571 180.384 97.8051 180.085 98.0024 179.776C98.1997 179.467 98.2984 179.157 98.2984 178.848C98.2984 178.528 98.2211 178.277 98.0664 178.096C97.9171 177.915 97.6797 177.824 97.3544 177.824C97.0397 177.824 96.7944 177.925 96.6184 178.128C96.4477 178.325 96.3571 178.592 96.3464 178.928H95.4664C95.4824 178.32 95.6637 177.856 96.0104 177.536C96.3624 177.211 96.8077 177.048 97.3464 177.048C97.9277 177.048 98.3811 177.208 98.7064 177.528C99.0371 177.848 99.2024 178.275 99.2024 178.808C99.2024 179.192 99.1037 179.563 98.9064 179.92C98.7144 180.272 98.4824 180.589 98.2104 180.872C97.9437 181.149 97.6024 181.472 97.1864 181.84L96.8264 182.16H99.3624V182.92H95.4744V182.256L96.0504 181.76ZM100.164 180.008C100.164 179.085 100.318 178.365 100.628 177.848C100.942 177.325 101.481 177.064 102.244 177.064C103.006 177.064 103.542 177.325 103.852 177.848C104.166 178.365 104.324 179.085 104.324 180.008C104.324 180.941 104.166 181.672 103.852 182.2C103.542 182.723 103.006 182.984 102.244 182.984C101.481 182.984 100.942 182.723 100.628 182.2C100.318 181.672 100.164 180.941 100.164 180.008ZM103.428 180.008C103.428 179.576 103.398 179.211 103.34 178.912C103.286 178.613 103.174 178.371 103.004 178.184C102.833 177.992 102.58 177.896 102.244 177.896C101.908 177.896 101.654 177.992 101.484 178.184C101.313 178.371 101.198 178.613 101.14 178.912C101.086 179.211 101.06 179.576 101.06 180.008C101.06 180.456 101.086 180.832 101.14 181.136C101.193 181.44 101.305 181.685 101.476 181.872C101.652 182.059 101.908 182.152 102.244 182.152C102.58 182.152 102.833 182.059 103.004 181.872C103.18 181.685 103.294 181.44 103.348 181.136C103.401 180.832 103.428 180.456 103.428 180.008ZM105.289 180.008C105.289 179.085 105.443 178.365 105.753 177.848C106.067 177.325 106.606 177.064 107.369 177.064C108.131 177.064 108.667 177.325 108.977 177.848C109.291 178.365 109.449 179.085 109.449 180.008C109.449 180.941 109.291 181.672 108.977 182.2C108.667 182.723 108.131 182.984 107.369 182.984C106.606 182.984 106.067 182.723 105.753 182.2C105.443 181.672 105.289 180.941 105.289 180.008ZM108.553 180.008C108.553 179.576 108.523 179.211 108.465 178.912C108.411 178.613 108.299 178.371 108.129 178.184C107.958 177.992 107.705 177.896 107.369 177.896C107.033 177.896 106.779 177.992 106.609 178.184C106.438 178.371 106.323 178.613 106.265 178.912C106.211 179.211 106.185 179.576 106.185 180.008C106.185 180.456 106.211 180.832 106.265 181.136C106.318 181.44 106.43 181.685 106.601 181.872C106.777 182.059 107.033 182.152 107.369 182.152C107.705 182.152 107.958 182.059 108.129 181.872C108.305 181.685 108.419 181.44 108.473 181.136C108.526 180.832 108.553 180.456 108.553 180.008Z" fill="black"/>
<path d="M136.464 178.608C136.496 178.112 136.685 177.725 137.032 177.448C137.384 177.171 137.832 177.032 138.376 177.032C138.749 177.032 139.072 177.099 139.344 177.232C139.616 177.365 139.821 177.547 139.96 177.776C140.099 178.005 140.168 178.264 140.168 178.552C140.168 178.883 140.08 179.165 139.904 179.4C139.728 179.635 139.517 179.792 139.272 179.872V179.904C139.587 180 139.832 180.176 140.008 180.432C140.184 180.683 140.272 181.005 140.272 181.4C140.272 181.715 140.2 181.995 140.056 182.24C139.912 182.485 139.699 182.68 139.416 182.824C139.133 182.963 138.795 183.032 138.4 183.032C137.824 183.032 137.349 182.885 136.976 182.592C136.608 182.293 136.411 181.867 136.384 181.312H137.264C137.285 181.595 137.395 181.827 137.592 182.008C137.789 182.184 138.056 182.272 138.392 182.272C138.717 182.272 138.968 182.184 139.144 182.008C139.32 181.827 139.408 181.595 139.408 181.312C139.408 180.939 139.288 180.675 139.048 180.52C138.813 180.36 138.451 180.28 137.96 180.28H137.752V179.528H137.968C138.4 179.523 138.728 179.451 138.952 179.312C139.181 179.173 139.296 178.955 139.296 178.656C139.296 178.4 139.213 178.197 139.048 178.048C138.883 177.893 138.648 177.816 138.344 177.816C138.045 177.816 137.813 177.893 137.648 178.048C137.483 178.197 137.384 178.384 137.352 178.608H136.464ZM141.23 180.008C141.23 179.085 141.385 178.365 141.694 177.848C142.009 177.325 142.547 177.064 143.31 177.064C144.073 177.064 144.609 177.325 144.918 177.848C145.233 178.365 145.39 179.085 145.39 180.008C145.39 180.941 145.233 181.672 144.918 182.2C144.609 182.723 144.073 182.984 143.31 182.984C142.547 182.984 142.009 182.723 141.694 182.2C141.385 181.672 141.23 180.941 141.23 180.008ZM144.494 180.008C144.494 179.576 144.465 179.211 144.406 178.912C144.353 178.613 144.241 178.371 144.07 178.184C143.899 177.992 143.646 177.896 143.31 177.896C142.974 177.896 142.721 177.992 142.55 178.184C142.379 178.371 142.265 178.613 142.206 178.912C142.153 179.211 142.126 179.576 142.126 180.008C142.126 180.456 142.153 180.832 142.206 181.136C142.259 181.44 142.371 181.685 142.542 181.872C142.718 182.059 142.974 182.152 143.31 182.152C143.646 182.152 143.899 182.059 144.07 181.872C144.246 181.685 144.361 181.44 144.414 181.136C144.467 180.832 144.494 180.456 144.494 180.008ZM146.355 180.008C146.355 179.085 146.51 178.365 146.819 177.848C147.134 177.325 147.672 177.064 148.435 177.064C149.198 177.064 149.734 177.325 150.043 177.848C150.358 178.365 150.515 179.085 150.515 180.008C150.515 180.941 150.358 181.672 150.043 182.2C149.734 182.723 149.198 182.984 148.435 182.984C147.672 182.984 147.134 182.723 146.819 182.2C146.51 181.672 146.355 180.941 146.355 180.008ZM149.619 180.008C149.619 179.576 149.59 179.211 149.531 178.912C149.478 178.613 149.366 178.371 149.195 178.184C149.024 177.992 148.771 177.896 148.435 177.896C148.099 177.896 147.846 177.992 147.675 178.184C147.504 178.371 147.39 178.613 147.331 178.912C147.278 179.211 147.251 179.576 147.251 180.008C147.251 180.456 147.278 180.832 147.331 181.136C147.384 181.44 147.496 181.685 147.667 181.872C147.843 182.059 148.099 182.152 148.435 182.152C148.771 182.152 149.024 182.059 149.195 181.872C149.371 181.685 149.486 181.44 149.539 181.136C149.592 180.832 149.619 180.456 149.619 180.008Z" fill="black"/>
<path d="M177.653 181.784V181.096L180.341 177.24H181.445V180.992H182.189V181.784H181.445V183H180.549V181.784H177.653ZM180.589 178.168L178.701 180.992H180.589V178.168ZM182.945 180.008C182.945 179.085 183.1 178.365 183.409 177.848C183.724 177.325 184.262 177.064 185.025 177.064C185.788 177.064 186.324 177.325 186.633 177.848C186.948 178.365 187.105 179.085 187.105 180.008C187.105 180.941 186.948 181.672 186.633 182.2C186.324 182.723 185.788 182.984 185.025 182.984C184.262 182.984 183.724 182.723 183.409 182.2C183.1 181.672 182.945 180.941 182.945 180.008ZM186.209 180.008C186.209 179.576 186.18 179.211 186.121 178.912C186.068 178.613 185.956 178.371 185.785 178.184C185.614 177.992 185.361 177.896 185.025 177.896C184.689 177.896 184.436 177.992 184.265 178.184C184.094 178.371 183.98 178.613 183.921 178.912C183.868 179.211 183.841 179.576 183.841 180.008C183.841 180.456 183.868 180.832 183.921 181.136C183.974 181.44 184.086 181.685 184.257 181.872C184.433 182.059 184.689 182.152 185.025 182.152C185.361 182.152 185.614 182.059 185.785 181.872C185.961 181.685 186.076 181.44 186.129 181.136C186.182 180.832 186.209 180.456 186.209 180.008ZM188.07 180.008C188.07 179.085 188.225 178.365 188.534 177.848C188.849 177.325 189.387 177.064 190.15 177.064C190.913 177.064 191.449 177.325 191.758 177.848C192.073 178.365 192.23 179.085 192.23 180.008C192.23 180.941 192.073 181.672 191.758 182.2C191.449 182.723 190.913 182.984 190.15 182.984C189.387 182.984 188.849 182.723 188.534 182.2C188.225 181.672 188.07 180.941 188.07 180.008ZM191.334 180.008C191.334 179.576 191.305 179.211 191.246 178.912C191.193 178.613 191.081 178.371 190.91 178.184C190.739 177.992 190.486 177.896 190.15 177.896C189.814 177.896 189.561 177.992 189.39 178.184C189.219 178.371 189.105 178.613 189.046 178.912C188.993 179.211 188.966 179.576 188.966 180.008C188.966 180.456 188.993 180.832 189.046 181.136C189.099 181.44 189.211 181.685 189.382 181.872C189.558 182.059 189.814 182.152 190.15 182.152C190.486 182.152 190.739 182.059 190.91 181.872C191.086 181.685 191.201 181.44 191.254 181.136C191.307 180.832 191.334 180.456 191.334 180.008Z" fill="black"/>
<path d="M222.56 177.952H219.88V179.544C219.992 179.395 220.158 179.269 220.376 179.168C220.6 179.067 220.838 179.016 221.088 179.016C221.536 179.016 221.899 179.112 222.176 179.304C222.459 179.496 222.659 179.739 222.776 180.032C222.899 180.325 222.96 180.635 222.96 180.96C222.96 181.355 222.883 181.707 222.728 182.016C222.579 182.32 222.352 182.56 222.048 182.736C221.75 182.912 221.382 183 220.944 183C220.363 183 219.896 182.856 219.544 182.568C219.192 182.28 218.982 181.899 218.912 181.424H219.8C219.859 181.675 219.99 181.875 220.192 182.024C220.395 182.168 220.648 182.24 220.952 182.24C221.331 182.24 221.614 182.125 221.8 181.896C221.992 181.667 222.088 181.363 222.088 180.984C222.088 180.6 221.992 180.307 221.8 180.104C221.608 179.896 221.326 179.792 220.952 179.792C220.691 179.792 220.47 179.859 220.288 179.992C220.112 180.12 219.984 180.296 219.904 180.52H219.04V177.152H222.56V177.952ZM223.91 180.008C223.91 179.085 224.064 178.365 224.374 177.848C224.688 177.325 225.227 177.064 225.99 177.064C226.752 177.064 227.288 177.325 227.598 177.848C227.912 178.365 228.07 179.085 228.07 180.008C228.07 180.941 227.912 181.672 227.598 182.2C227.288 182.723 226.752 182.984 225.99 182.984C225.227 182.984 224.688 182.723 224.374 182.2C224.064 181.672 223.91 180.941 223.91 180.008ZM227.174 180.008C227.174 179.576 227.144 179.211 227.086 178.912C227.032 178.613 226.92 178.371 226.75 178.184C226.579 177.992 226.326 177.896 225.99 177.896C225.654 177.896 225.4 177.992 225.23 178.184C225.059 178.371 224.944 178.613 224.886 178.912C224.832 179.211 224.806 179.576 224.806 180.008C224.806 180.456 224.832 180.832 224.886 181.136C224.939 181.44 225.051 181.685 225.222 181.872C225.398 182.059 225.654 182.152 225.99 182.152C226.326 182.152 226.579 182.059 226.75 181.872C226.926 181.685 227.04 181.44 227.094 181.136C227.147 180.832 227.174 180.456 227.174 180.008ZM229.035 180.008C229.035 179.085 229.189 178.365 229.499 177.848C229.813 177.325 230.352 177.064 231.115 177.064C231.877 177.064 232.413 177.325 232.723 177.848C233.037 178.365 233.195 179.085 233.195 180.008C233.195 180.941 233.037 181.672 232.723 182.2C232.413 182.723 231.877 182.984 231.115 182.984C230.352 182.984 229.813 182.723 229.499 182.2C229.189 181.672 229.035 180.941 229.035 180.008ZM232.299 180.008C232.299 179.576 232.269 179.211 232.211 178.912C232.157 178.613 232.045 178.371 231.875 178.184C231.704 177.992 231.451 177.896 231.115 177.896C230.779 177.896 230.525 177.992 230.355 178.184C230.184 178.371 230.069 178.613 230.011 178.912C229.957 179.211 229.931 179.576 229.931 180.008C229.931 180.456 229.957 180.832 230.011 181.136C230.064 181.44 230.176 181.685 230.347 181.872C230.523 182.059 230.779 182.152 231.115 182.152C231.451 182.152 231.704 182.059 231.875 181.872C232.051 181.685 232.165 181.44 232.219 181.136C232.272 180.832 232.299 180.456 232.299 180.008Z" fill="black"/>
<path d="M262.925 178.52C262.866 178.275 262.759 178.091 262.605 177.968C262.45 177.845 262.234 177.784 261.957 177.784C261.535 177.784 261.221 177.947 261.013 178.272C260.805 178.592 260.695 179.125 260.685 179.872C260.823 179.637 261.026 179.456 261.293 179.328C261.559 179.2 261.847 179.136 262.157 179.136C262.509 179.136 262.818 179.213 263.085 179.368C263.357 179.517 263.567 179.736 263.717 180.024C263.871 180.312 263.949 180.656 263.949 181.056C263.949 181.429 263.874 181.763 263.725 182.056C263.581 182.349 263.365 182.581 263.077 182.752C262.789 182.917 262.442 183 262.037 183C261.487 183 261.055 182.88 260.741 182.64C260.431 182.395 260.213 182.051 260.085 181.608C259.962 181.165 259.901 180.613 259.901 179.952C259.901 178 260.589 177.024 261.965 177.024C262.498 177.024 262.917 177.168 263.221 177.456C263.53 177.744 263.711 178.099 263.765 178.52H262.925ZM261.957 179.904C261.631 179.904 261.354 180.003 261.125 180.2C260.901 180.392 260.789 180.672 260.789 181.04C260.789 181.408 260.893 181.701 261.101 181.92C261.314 182.133 261.61 182.24 261.989 182.24C262.325 182.24 262.589 182.136 262.781 181.928C262.978 181.72 263.077 181.443 263.077 181.096C263.077 180.733 262.981 180.445 262.789 180.232C262.602 180.013 262.325 179.904 261.957 179.904ZM264.921 180.008C264.921 179.085 265.076 178.365 265.385 177.848C265.7 177.325 266.239 177.064 267.001 177.064C267.764 177.064 268.3 177.325 268.609 177.848C268.924 178.365 269.081 179.085 269.081 180.008C269.081 180.941 268.924 181.672 268.609 182.2C268.3 182.723 267.764 182.984 267.001 182.984C266.239 182.984 265.7 182.723 265.385 182.2C265.076 181.672 264.921 180.941 264.921 180.008ZM268.185 180.008C268.185 179.576 268.156 179.211 268.097 178.912C268.044 178.613 267.932 178.371 267.761 178.184C267.591 177.992 267.337 177.896 267.001 177.896C266.665 177.896 266.412 177.992 266.241 178.184C266.071 178.371 265.956 178.613 265.897 178.912C265.844 179.211 265.817 179.576 265.817 180.008C265.817 180.456 265.844 180.832 265.897 181.136C265.951 181.44 266.063 181.685 266.233 181.872C266.409 182.059 266.665 182.152 267.001 182.152C267.337 182.152 267.591 182.059 267.761 181.872C267.937 181.685 268.052 181.44 268.105 181.136C268.159 180.832 268.185 180.456 268.185 180.008ZM270.046 180.008C270.046 179.085 270.201 178.365 270.51 177.848C270.825 177.325 271.364 177.064 272.126 177.064C272.889 177.064 273.425 177.325 273.734 177.848C274.049 178.365 274.206 179.085 274.206 180.008C274.206 180.941 274.049 181.672 273.734 182.2C273.425 182.723 272.889 182.984 272.126 182.984C271.364 182.984 270.825 182.723 270.51 182.2C270.201 181.672 270.046 180.941 270.046 180.008ZM273.31 180.008C273.31 179.576 273.281 179.211 273.222 178.912C273.169 178.613 273.057 178.371 272.886 178.184C272.716 177.992 272.462 177.896 272.126 177.896C271.79 177.896 271.537 177.992 271.366 178.184C271.196 178.371 271.081 178.613 271.022 178.912C270.969 179.211 270.942 179.576 270.942 180.008C270.942 180.456 270.969 180.832 271.022 181.136C271.076 181.44 271.188 181.685 271.358 181.872C271.534 182.059 271.79 182.152 272.126 182.152C272.462 182.152 272.716 182.059 272.886 181.872C273.062 181.685 273.177 181.44 273.23 181.136C273.284 180.832 273.31 180.456 273.31 180.008Z" fill="black"/>
<path d="M304.313 177.872L302.089 183H301.169L303.417 177.968H300.457V177.192H304.313V177.872ZM305.093 180.008C305.093 179.085 305.248 178.365 305.557 177.848C305.872 177.325 306.411 177.064 307.173 177.064C307.936 177.064 308.472 177.325 308.781 177.848C309.096 178.365 309.253 179.085 309.253 180.008C309.253 180.941 309.096 181.672 308.781 182.2C308.472 182.723 307.936 182.984 307.173 182.984C306.411 182.984 305.872 182.723 305.557 182.2C305.248 181.672 305.093 180.941 305.093 180.008ZM308.357 180.008C308.357 179.576 308.328 179.211 308.269 178.912C308.216 178.613 308.104 178.371 307.933 178.184C307.763 177.992 307.509 177.896 307.173 177.896C306.837 177.896 306.584 177.992 306.413 178.184C306.243 178.371 306.128 178.613 306.069 178.912C306.016 179.211 305.989 179.576 305.989 180.008C305.989 180.456 306.016 180.832 306.069 181.136C306.123 181.44 306.235 181.685 306.405 181.872C306.581 182.059 306.837 182.152 307.173 182.152C307.509 182.152 307.763 182.059 307.933 181.872C308.109 181.685 308.224 181.44 308.277 181.136C308.331 180.832 308.357 180.456 308.357 180.008ZM310.218 180.008C310.218 179.085 310.373 178.365 310.682 177.848C310.997 177.325 311.536 177.064 312.298 177.064C313.061 177.064 313.597 177.325 313.906 177.848C314.221 178.365 314.378 179.085 314.378 180.008C314.378 180.941 314.221 181.672 313.906 182.2C313.597 182.723 313.061 182.984 312.298 182.984C311.536 182.984 310.997 182.723 310.682 182.2C310.373 181.672 310.218 180.941 310.218 180.008ZM313.482 180.008C313.482 179.576 313.453 179.211 313.394 178.912C313.341 178.613 313.229 178.371 313.058 178.184C312.888 177.992 312.634 177.896 312.298 177.896C311.962 177.896 311.709 177.992 311.538 178.184C311.368 178.371 311.253 178.613 311.194 178.912C311.141 179.211 311.114 179.576 311.114 180.008C311.114 180.456 311.141 180.832 311.194 181.136C311.248 181.44 311.36 181.685 311.53 181.872C311.706 182.059 311.962 182.152 312.298 182.152C312.634 182.152 312.888 182.059 313.058 181.872C313.234 181.685 313.349 181.44 313.402 181.136C313.456 180.832 313.482 180.456 313.482 180.008Z" fill="black"/>
<path d="M342.788 179.952C342.234 179.675 341.956 179.237 341.956 178.64C341.956 178.352 342.028 178.088 342.172 177.848C342.316 177.608 342.532 177.419 342.82 177.28C343.108 177.136 343.46 177.064 343.876 177.064C344.287 177.064 344.636 177.136 344.924 177.28C345.218 177.419 345.436 177.608 345.58 177.848C345.724 178.088 345.796 178.352 345.796 178.64C345.796 178.939 345.719 179.203 345.564 179.432C345.415 179.656 345.215 179.829 344.964 179.952C345.268 180.064 345.508 180.248 345.684 180.504C345.86 180.755 345.948 181.051 345.948 181.392C345.948 181.739 345.86 182.045 345.684 182.312C345.508 182.579 345.263 182.784 344.948 182.928C344.634 183.072 344.276 183.144 343.876 183.144C343.476 183.144 343.119 183.072 342.804 182.928C342.495 182.784 342.252 182.579 342.076 182.312C341.9 182.045 341.812 181.739 341.812 181.392C341.812 181.045 341.9 180.747 342.076 180.496C342.252 180.245 342.49 180.064 342.788 179.952ZM344.924 178.752C344.924 178.453 344.831 178.224 344.644 178.064C344.458 177.904 344.202 177.824 343.876 177.824C343.556 177.824 343.303 177.904 343.116 178.064C342.93 178.224 342.836 178.456 342.836 178.76C342.836 179.027 342.932 179.245 343.124 179.416C343.322 179.581 343.572 179.664 343.876 179.664C344.18 179.664 344.431 179.579 344.628 179.408C344.826 179.237 344.924 179.019 344.924 178.752ZM343.876 180.352C343.524 180.352 343.236 180.44 343.012 180.616C342.794 180.787 342.684 181.035 342.684 181.36C342.684 181.664 342.791 181.912 343.004 182.104C343.218 182.291 343.508 182.384 343.876 182.384C344.239 182.384 344.524 182.288 344.732 182.096C344.946 181.904 345.052 181.659 345.052 181.36C345.052 181.04 344.943 180.792 344.724 180.616C344.511 180.44 344.228 180.352 343.876 180.352ZM346.906 180.008C346.906 179.085 347.06 178.365 347.37 177.848C347.684 177.325 348.223 177.064 348.986 177.064C349.748 177.064 350.284 177.325 350.594 177.848C350.908 178.365 351.066 179.085 351.066 180.008C351.066 180.941 350.908 181.672 350.594 182.2C350.284 182.723 349.748 182.984 348.986 182.984C348.223 182.984 347.684 182.723 347.37 182.2C347.06 181.672 346.906 180.941 346.906 180.008ZM350.17 180.008C350.17 179.576 350.14 179.211 350.082 178.912C350.028 178.613 349.916 178.371 349.746 178.184C349.575 177.992 349.322 177.896 348.986 177.896C348.65 177.896 348.396 177.992 348.226 178.184C348.055 178.371 347.94 178.613 347.882 178.912C347.828 179.211 347.802 179.576 347.802 180.008C347.802 180.456 347.828 180.832 347.882 181.136C347.935 181.44 348.047 181.685 348.218 181.872C348.394 182.059 348.65 182.152 348.986 182.152C349.322 182.152 349.575 182.059 349.746 181.872C349.922 181.685 350.036 181.44 350.09 181.136C350.143 180.832 350.17 180.456 350.17 180.008ZM352.031 180.008C352.031 179.085 352.185 178.365 352.495 177.848C352.809 177.325 353.348 177.064 354.111 177.064C354.873 177.064 355.409 177.325 355.719 177.848C356.033 178.365 356.191 179.085 356.191 180.008C356.191 180.941 356.033 181.672 355.719 182.2C355.409 182.723 354.873 182.984 354.111 182.984C353.348 182.984 352.809 182.723 352.495 182.2C352.185 181.672 352.031 180.941 352.031 180.008ZM355.295 180.008C355.295 179.576 355.265 179.211 355.207 178.912C355.153 178.613 355.041 178.371 354.871 178.184C354.7 177.992 354.447 177.896 354.111 177.896C353.775 177.896 353.521 177.992 353.351 178.184C353.18 178.371 353.065 178.613 353.007 178.912C352.953 179.211 352.927 179.576 352.927 180.008C352.927 180.456 352.953 180.832 353.007 181.136C353.06 181.44 353.172 181.685 353.343 181.872C353.519 182.059 353.775 182.152 354.111 182.152C354.447 182.152 354.7 182.059 354.871 181.872C355.047 181.685 355.161 181.44 355.215 181.136C355.268 180.832 355.295 180.456 355.295 180.008Z" fill="black"/>
<path d="M383.952 181.416C384.005 181.683 384.12 181.885 384.296 182.024C384.472 182.163 384.709 182.232 385.008 182.232C385.387 182.232 385.664 182.083 385.84 181.784C386.016 181.485 386.104 180.976 386.104 180.256C385.976 180.437 385.795 180.579 385.56 180.68C385.331 180.776 385.08 180.824 384.808 180.824C384.461 180.824 384.147 180.755 383.864 180.616C383.581 180.472 383.357 180.261 383.192 179.984C383.032 179.701 382.952 179.36 382.952 178.96C382.952 178.373 383.123 177.907 383.464 177.56C383.811 177.208 384.285 177.032 384.888 177.032C385.613 177.032 386.128 177.275 386.432 177.76C386.741 178.24 386.896 178.979 386.896 179.976C386.896 180.664 386.837 181.227 386.72 181.664C386.608 182.101 386.411 182.432 386.128 182.656C385.845 182.88 385.453 182.992 384.952 182.992C384.381 182.992 383.941 182.843 383.632 182.544C383.323 182.245 383.149 181.869 383.112 181.416H383.952ZM384.968 180.056C385.288 180.056 385.539 179.957 385.72 179.76C385.907 179.557 386 179.291 386 178.96C386 178.592 385.901 178.307 385.704 178.104C385.512 177.896 385.248 177.792 384.912 177.792C384.576 177.792 384.309 177.899 384.112 178.112C383.92 178.32 383.824 178.595 383.824 178.936C383.824 179.261 383.917 179.531 384.104 179.744C384.296 179.952 384.584 180.056 384.968 180.056ZM387.894 180.008C387.894 179.085 388.049 178.365 388.358 177.848C388.673 177.325 389.211 177.064 389.974 177.064C390.737 177.064 391.273 177.325 391.582 177.848C391.897 178.365 392.054 179.085 392.054 180.008C392.054 180.941 391.897 181.672 391.582 182.2C391.273 182.723 390.737 182.984 389.974 182.984C389.211 182.984 388.673 182.723 388.358 182.2C388.049 181.672 387.894 180.941 387.894 180.008ZM391.158 180.008C391.158 179.576 391.129 179.211 391.07 178.912C391.017 178.613 390.905 178.371 390.734 178.184C390.563 177.992 390.31 177.896 389.974 177.896C389.638 177.896 389.385 177.992 389.214 178.184C389.043 178.371 388.929 178.613 388.87 178.912C388.817 179.211 388.79 179.576 388.79 180.008C388.79 180.456 388.817 180.832 388.87 181.136C388.923 181.44 389.035 181.685 389.206 181.872C389.382 182.059 389.638 182.152 389.974 182.152C390.31 182.152 390.563 182.059 390.734 181.872C390.91 181.685 391.025 181.44 391.078 181.136C391.131 180.832 391.158 180.456 391.158 180.008ZM393.019 180.008C393.019 179.085 393.174 178.365 393.483 177.848C393.798 177.325 394.336 177.064 395.099 177.064C395.862 177.064 396.398 177.325 396.707 177.848C397.022 178.365 397.179 179.085 397.179 180.008C397.179 180.941 397.022 181.672 396.707 182.2C396.398 182.723 395.862 182.984 395.099 182.984C394.336 182.984 393.798 182.723 393.483 182.2C393.174 181.672 393.019 180.941 393.019 180.008ZM396.283 180.008C396.283 179.576 396.254 179.211 396.195 178.912C396.142 178.613 396.03 178.371 395.859 178.184C395.688 177.992 395.435 177.896 395.099 177.896C394.763 177.896 394.51 177.992 394.339 178.184C394.168 178.371 394.054 178.613 393.995 178.912C393.942 179.211 393.915 179.576 393.915 180.008C393.915 180.456 393.942 180.832 393.995 181.136C394.048 181.44 394.16 181.685 394.331 181.872C394.507 182.059 394.763 182.152 395.099 182.152C395.435 182.152 395.688 182.059 395.859 181.872C396.035 181.685 396.15 181.44 396.203 181.136C396.256 180.832 396.283 180.456 396.283 180.008Z" fill="black"/>
<path d="M421.774 178V177.168H423.438V183H422.518V178H421.774ZM424.691 180.008C424.691 179.085 424.846 178.365 425.155 177.848C425.47 177.325 426.008 177.064 426.771 177.064C427.534 177.064 428.07 177.325 428.379 177.848C428.694 178.365 428.851 179.085 428.851 180.008C428.851 180.941 428.694 181.672 428.379 182.2C428.07 182.723 427.534 182.984 426.771 182.984C426.008 182.984 425.47 182.723 425.155 182.2C424.846 181.672 424.691 180.941 424.691 180.008ZM427.955 180.008C427.955 179.576 427.926 179.211 427.867 178.912C427.814 178.613 427.702 178.371 427.531 178.184C427.36 177.992 427.107 177.896 426.771 177.896C426.435 177.896 426.182 177.992 426.011 178.184C425.84 178.371 425.726 178.613 425.667 178.912C425.614 179.211 425.587 179.576 425.587 180.008C425.587 180.456 425.614 180.832 425.667 181.136C425.72 181.44 425.832 181.685 426.003 181.872C426.179 182.059 426.435 182.152 426.771 182.152C427.107 182.152 427.36 182.059 427.531 181.872C427.707 181.685 427.822 181.44 427.875 181.136C427.928 180.832 427.955 180.456 427.955 180.008ZM429.816 180.008C429.816 179.085 429.971 178.365 430.28 177.848C430.595 177.325 431.133 177.064 431.896 177.064C432.659 177.064 433.195 177.325 433.504 177.848C433.819 178.365 433.976 179.085 433.976 180.008C433.976 180.941 433.819 181.672 433.504 182.2C433.195 182.723 432.659 182.984 431.896 182.984C431.133 182.984 430.595 182.723 430.28 182.2C429.971 181.672 429.816 180.941 429.816 180.008ZM433.08 180.008C433.08 179.576 433.051 179.211 432.992 178.912C432.939 178.613 432.827 178.371 432.656 178.184C432.485 177.992 432.232 177.896 431.896 177.896C431.56 177.896 431.307 177.992 431.136 178.184C430.965 178.371 430.851 178.613 430.792 178.912C430.739 179.211 430.712 179.576 430.712 180.008C430.712 180.456 430.739 180.832 430.792 181.136C430.845 181.44 430.957 181.685 431.128 181.872C431.304 182.059 431.56 182.152 431.896 182.152C432.232 182.152 432.485 182.059 432.656 181.872C432.832 181.685 432.947 181.44 433 181.136C433.053 180.832 433.08 180.456 433.08 180.008ZM434.941 180.008C434.941 179.085 435.096 178.365 435.405 177.848C435.72 177.325 436.258 177.064 437.021 177.064C437.784 177.064 438.32 177.325 438.629 177.848C438.944 178.365 439.101 179.085 439.101 180.008C439.101 180.941 438.944 181.672 438.629 182.2C438.32 182.723 437.784 182.984 437.021 182.984C436.258 182.984 435.72 182.723 435.405 182.2C435.096 181.672 434.941 180.941 434.941 180.008ZM438.205 180.008C438.205 179.576 438.176 179.211 438.117 178.912C438.064 178.613 437.952 178.371 437.781 178.184C437.61 177.992 437.357 177.896 437.021 177.896C436.685 177.896 436.432 177.992 436.261 178.184C436.09 178.371 435.976 178.613 435.917 178.912C435.864 179.211 435.837 179.576 435.837 180.008C435.837 180.456 435.864 180.832 435.917 181.136C435.97 181.44 436.082 181.685 436.253 181.872C436.429 182.059 436.685 182.152 437.021 182.152C437.357 182.152 437.61 182.059 437.781 181.872C437.957 181.685 438.072 181.44 438.125 181.136C438.178 180.832 438.205 180.456 438.205 180.008Z" fill="black"/>
<path d="M3.44398 141.21L5.22398 144H3.93398L2.74398 142.13L1.62398 144H0.433984L2.21398 141.29L0.433984 138.49H1.72398L2.91398 140.36L4.03398 138.49H5.22398L3.44398 141.21ZM8.07422 144.09C7.64089 144.09 7.25089 144.013 6.90422 143.86C6.56422 143.7 6.29422 143.487 6.09422 143.22C5.89422 142.947 5.78755 142.643 5.77422 142.31H6.95422C6.97422 142.543 7.08422 142.74 7.28422 142.9C7.49089 143.053 7.74755 143.13 8.05422 143.13C8.37422 143.13 8.62089 143.07 8.79422 142.95C8.97422 142.823 9.06422 142.663 9.06422 142.47C9.06422 142.263 8.96422 142.11 8.76422 142.01C8.57089 141.91 8.26089 141.8 7.83422 141.68C7.42089 141.567 7.08422 141.457 6.82422 141.35C6.56422 141.243 6.33755 141.08 6.14422 140.86C5.95755 140.64 5.86422 140.35 5.86422 139.99C5.86422 139.697 5.95089 139.43 6.12422 139.19C6.29755 138.943 6.54422 138.75 6.86422 138.61C7.19089 138.47 7.56422 138.4 7.98422 138.4C8.61089 138.4 9.11422 138.56 9.49422 138.88C9.88089 139.193 10.0876 139.623 10.1142 140.17H8.97422C8.95422 139.923 8.85422 139.727 8.67422 139.58C8.49422 139.433 8.25089 139.36 7.94422 139.36C7.64422 139.36 7.41422 139.417 7.25422 139.53C7.09422 139.643 7.01422 139.793 7.01422 139.98C7.01422 140.127 7.06755 140.25 7.17422 140.35C7.28089 140.45 7.41089 140.53 7.56422 140.59C7.71755 140.643 7.94422 140.713 8.24422 140.8C8.64422 140.907 8.97089 141.017 9.22422 141.13C9.48422 141.237 9.70755 141.397 9.89422 141.61C10.0809 141.823 10.1776 142.107 10.1842 142.46C10.1842 142.773 10.0976 143.053 9.92422 143.3C9.75089 143.547 9.50422 143.74 9.18422 143.88C8.87089 144.02 8.50089 144.09 8.07422 144.09Z" fill="black"/>
<path d="M3.44398 103.21L5.22398 106H3.93398L2.74398 104.13L1.62398 106H0.433984L2.21398 103.29L0.433984 100.49H1.72398L2.91398 102.36L4.03398 100.49H5.22398L3.44398 103.21ZM8.07422 106.09C7.64089 106.09 7.25089 106.013 6.90422 105.86C6.56422 105.7 6.29422 105.487 6.09422 105.22C5.89422 104.947 5.78755 104.643 5.77422 104.31H6.95422C6.97422 104.543 7.08422 104.74 7.28422 104.9C7.49089 105.053 7.74755 105.13 8.05422 105.13C8.37422 105.13 8.62089 105.07 8.79422 104.95C8.97422 104.823 9.06422 104.663 9.06422 104.47C9.06422 104.263 8.96422 104.11 8.76422 104.01C8.57089 103.91 8.26089 103.8 7.83422 103.68C7.42089 103.567 7.08422 103.457 6.82422 103.35C6.56422 103.243 6.33755 103.08 6.14422 102.86C5.95755 102.64 5.86422 102.35 5.86422 101.99C5.86422 101.697 5.95089 101.43 6.12422 101.19C6.29755 100.943 6.54422 100.75 6.86422 100.61C7.19089 100.47 7.56422 100.4 7.98422 100.4C8.61089 100.4 9.11422 100.56 9.49422 100.88C9.88089 101.193 10.0876 101.623 10.1142 102.17H8.97422C8.95422 101.923 8.85422 101.727 8.67422 101.58C8.49422 101.433 8.25089 101.36 7.94422 101.36C7.64422 101.36 7.41422 101.417 7.25422 101.53C7.09422 101.643 7.01422 101.793 7.01422 101.98C7.01422 102.127 7.06755 102.25 7.17422 102.35C7.28089 102.45 7.41089 102.53 7.56422 102.59C7.71755 102.643 7.94422 102.713 8.24422 102.8C8.64422 102.907 8.97089 103.017 9.22422 103.13C9.48422 103.237 9.70755 103.397 9.89422 103.61C10.0809 103.823 10.1776 104.107 10.1842 104.46C10.1842 104.773 10.0976 105.053 9.92422 105.3C9.75089 105.547 9.50422 105.74 9.18422 105.88C8.87089 106.02 8.50089 106.09 8.07422 106.09Z" fill="black"/>
<path d="M3.44398 65.21L5.22398 68H3.93398L2.74398 66.13L1.62398 68H0.433984L2.21398 65.29L0.433984 62.49H1.72398L2.91398 64.36L4.03398 62.49H5.22398L3.44398 65.21ZM8.07422 68.09C7.64089 68.09 7.25089 68.0133 6.90422 67.86C6.56422 67.7 6.29422 67.4867 6.09422 67.22C5.89422 66.9467 5.78755 66.6433 5.77422 66.31H6.95422C6.97422 66.5433 7.08422 66.74 7.28422 66.9C7.49089 67.0533 7.74755 67.13 8.05422 67.13C8.37422 67.13 8.62089 67.07 8.79422 66.95C8.97422 66.8233 9.06422 66.6633 9.06422 66.47C9.06422 66.2633 8.96422 66.11 8.76422 66.01C8.57089 65.91 8.26089 65.8 7.83422 65.68C7.42089 65.5667 7.08422 65.4567 6.82422 65.35C6.56422 65.2433 6.33755 65.08 6.14422 64.86C5.95755 64.64 5.86422 64.35 5.86422 63.99C5.86422 63.6967 5.95089 63.43 6.12422 63.19C6.29755 62.9433 6.54422 62.75 6.86422 62.61C7.19089 62.47 7.56422 62.4 7.98422 62.4C8.61089 62.4 9.11422 62.56 9.49422 62.88C9.88089 63.1933 10.0876 63.6233 10.1142 64.17H8.97422C8.95422 63.9233 8.85422 63.7267 8.67422 63.58C8.49422 63.4333 8.25089 63.36 7.94422 63.36C7.64422 63.36 7.41422 63.4167 7.25422 63.53C7.09422 63.6433 7.01422 63.7933 7.01422 63.98C7.01422 64.1267 7.06755 64.25 7.17422 64.35C7.28089 64.45 7.41089 64.53 7.56422 64.59C7.71755 64.6433 7.94422 64.7133 8.24422 64.8C8.64422 64.9067 8.97089 65.0167 9.22422 65.13C9.48422 65.2367 9.70755 65.3967 9.89422 65.61C10.0809 65.8233 10.1776 66.1067 10.1842 66.46C10.1842 66.7733 10.0976 67.0533 9.92422 67.3C9.75089 67.5467 9.50422 67.74 9.18422 67.88C8.87089 68.02 8.50089 68.09 8.07422 68.09Z" fill="black"/>
<path d="M3.44398 27.21L5.22398 30H3.93398L2.74398 28.13L1.62398 30H0.433984L2.21398 27.29L0.433984 24.49H1.72398L2.91398 26.36L4.03398 24.49H5.22398L3.44398 27.21ZM8.07422 30.09C7.64089 30.09 7.25089 30.0133 6.90422 29.86C6.56422 29.7 6.29422 29.4867 6.09422 29.22C5.89422 28.9467 5.78755 28.6433 5.77422 28.31H6.95422C6.97422 28.5433 7.08422 28.74 7.28422 28.9C7.49089 29.0533 7.74755 29.13 8.05422 29.13C8.37422 29.13 8.62089 29.07 8.79422 28.95C8.97422 28.8233 9.06422 28.6633 9.06422 28.47C9.06422 28.2633 8.96422 28.11 8.76422 28.01C8.57089 27.91 8.26089 27.8 7.83422 27.68C7.42089 27.5667 7.08422 27.4567 6.82422 27.35C6.56422 27.2433 6.33755 27.08 6.14422 26.86C5.95755 26.64 5.86422 26.35 5.86422 25.99C5.86422 25.6967 5.95089 25.43 6.12422 25.19C6.29755 24.9433 6.54422 24.75 6.86422 24.61C7.19089 24.47 7.56422 24.4 7.98422 24.4C8.61089 24.4 9.11422 24.56 9.49422 24.88C9.88089 25.1933 10.0876 25.6233 10.1142 26.17H8.97422C8.95422 25.9233 8.85422 25.7267 8.67422 25.58C8.49422 25.4333 8.25089 25.36 7.94422 25.36C7.64422 25.36 7.41422 25.4167 7.25422 25.53C7.09422 25.6433 7.01422 25.7933 7.01422 25.98C7.01422 26.1267 7.06755 26.25 7.17422 26.35C7.28089 26.45 7.41089 26.53 7.56422 26.59C7.71755 26.6433 7.94422 26.7133 8.24422 26.8C8.64422 26.9067 8.97089 27.0167 9.22422 27.13C9.48422 27.2367 9.70755 27.3967 9.89422 27.61C10.0809 27.8233 10.1776 28.1067 10.1842 28.46C10.1842 28.7733 10.0976 29.0533 9.92422 29.3C9.75089 29.5467 9.50422 29.74 9.18422 29.88C8.87089 30.02 8.50089 30.09 8.07422 30.09Z" fill="black"/>
<defs>
<clipPath id="clip0_1911_620">
<path d="M21 0H449V170H21V0Z" fill="white"/>
</clipPath>
</defs>
</svg>
