<svg width="15" height="16" viewBox="0 0 15 16" fill="current" xmlns="http://www.w3.org/2000/svg">
<path fill-rule="evenodd" clip-rule="evenodd" d="M14.4254 7.24777V11.3951C14.4254 11.4361 14.414 11.4762 14.3923 11.5109C14.3706 11.5456 14.3395 11.5735 14.3027 11.5915L10.7339 13.6515C10.6979 13.676 10.6554 13.6891 10.6119 13.6891C10.5684 13.6891 10.5258 13.676 10.4899 13.6515L8.03309 12.2327V14.4615C8.0328 14.6572 7.95499 14.8447 7.81671 14.983C7.67843 15.1214 7.49095 15.1993 7.29533 15.1998H0.868131C0.672595 15.1993 0.485188 15.1215 0.346923 14.9832C0.208658 14.845 0.130794 14.6575 0.130371 14.462V5.27209C0.130794 5.07654 0.208652 4.88912 0.346913 4.75083C0.485174 4.61253 0.67258 4.53464 0.868131 4.53417H2.46925C2.50561 4.43495 2.57152 4.34926 2.65809 4.28867C2.74467 4.22807 2.84774 4.19548 2.95341 4.19529H5.20941C5.31514 4.19542 5.41828 4.22798 5.50492 4.28858C5.59155 4.34918 5.65751 4.4349 5.69389 4.53417H6.79949V3.09417C6.79948 3.05323 6.811 3.01312 6.83273 2.97843C6.85447 2.94373 6.88553 2.91586 6.92237 2.89801L10.5033 0.82953C10.5369 0.810097 10.5751 0.799983 10.6138 0.800237C10.6526 0.80049 10.6907 0.8111 10.724 0.83097L14.3137 2.90345C14.3475 2.92235 14.3756 2.94992 14.3951 2.9833C14.4147 3.01669 14.425 3.05468 14.4249 3.09337V7.24777H14.4254ZM1.75661 13.3537H3.62221C3.65136 13.3545 3.68037 13.3494 3.70753 13.3388C3.73468 13.3282 3.75944 13.3123 3.78033 13.2919C3.80123 13.2716 3.81784 13.2473 3.82918 13.2204C3.84052 13.1935 3.84636 13.1647 3.84636 13.1355C3.84636 13.1064 3.84052 13.0775 3.82918 13.0507C3.81784 13.0238 3.80123 12.9995 3.78033 12.9791C3.75944 12.9588 3.73468 12.9429 3.70753 12.9322C3.68037 12.9216 3.65136 12.9166 3.62221 12.9174H1.75661C1.72746 12.9166 1.69846 12.9216 1.6713 12.9322C1.64414 12.9429 1.61938 12.9588 1.59849 12.9791C1.57759 12.9995 1.56098 13.0238 1.54964 13.0507C1.5383 13.0775 1.53246 13.1064 1.53246 13.1355C1.53246 13.1647 1.5383 13.1935 1.54964 13.2204C1.56098 13.2473 1.57759 13.2716 1.59849 13.2919C1.61938 13.3123 1.64414 13.3282 1.6713 13.3388C1.69846 13.3494 1.72746 13.3545 1.75661 13.3537ZM1.75661 12.4807H4.60285C4.632 12.4815 4.66101 12.4765 4.68817 12.4659C4.71532 12.4552 4.74008 12.4393 4.76098 12.419C4.78187 12.3986 4.79848 12.3743 4.80982 12.3475C4.82116 12.3206 4.827 12.2917 4.827 12.2626C4.827 12.2334 4.82116 12.2046 4.80982 12.1777C4.79848 12.1508 4.78187 12.1265 4.76098 12.1062C4.74008 12.0858 4.71532 12.0699 4.68817 12.0593C4.66101 12.0487 4.632 12.0436 4.60285 12.0444H1.75661C1.72746 12.0436 1.69846 12.0487 1.6713 12.0593C1.64414 12.0699 1.61938 12.0858 1.59849 12.1062C1.57759 12.1265 1.56098 12.1508 1.54964 12.1777C1.5383 12.2046 1.53246 12.2334 1.53246 12.2626C1.53246 12.2917 1.5383 12.3206 1.54964 12.3475C1.56098 12.3743 1.57759 12.3986 1.59849 12.419C1.61938 12.4393 1.64414 12.4552 1.6713 12.4659C1.69846 12.4765 1.72746 12.4815 1.75661 12.4807ZM5.16765 12.8943L5.43421 13.1983C5.453 13.2198 5.47584 13.2374 5.50143 13.2501C5.52701 13.2627 5.55484 13.2702 5.58333 13.2721C5.61181 13.274 5.64039 13.2703 5.66744 13.2612C5.69448 13.252 5.71945 13.2376 5.74093 13.2188L6.55005 12.5079C6.57155 12.4891 6.58913 12.4663 6.60179 12.4407C6.61445 12.4151 6.62195 12.3872 6.62385 12.3587C6.62575 12.3302 6.62202 12.3016 6.61287 12.2746C6.60372 12.2475 6.58934 12.2225 6.57053 12.2011C6.55173 12.1796 6.52887 12.162 6.50327 12.1493C6.47767 12.1367 6.44983 12.1292 6.42133 12.1273C6.39284 12.1254 6.36424 12.1291 6.33719 12.1382C6.31013 12.1474 6.28515 12.1618 6.26365 12.1806L5.61757 12.7483L5.49485 12.6086C5.47618 12.5866 5.45333 12.5686 5.42764 12.5556C5.40195 12.5426 5.37393 12.5348 5.3452 12.5327C5.31647 12.5306 5.28761 12.5342 5.26029 12.5433C5.23297 12.5525 5.20774 12.5669 5.18607 12.5859C5.16439 12.6049 5.1467 12.628 5.13403 12.6538C5.12135 12.6797 5.11394 12.7078 5.11223 12.7366C5.11051 12.7653 5.11453 12.7942 5.12404 12.8213C5.13356 12.8485 5.14838 12.8736 5.16765 12.895V12.8943ZM1.75661 10.5215H3.62221C3.68009 10.5215 3.7356 10.4985 3.77653 10.4576C3.81746 10.4167 3.84045 10.3612 3.84045 10.3033C3.84045 10.2454 3.81746 10.1899 3.77653 10.149C3.7356 10.108 3.68009 10.0851 3.62221 10.0851H1.75661C1.69873 10.0851 1.64322 10.108 1.60229 10.149C1.56136 10.1899 1.53837 10.2454 1.53837 10.3033C1.53837 10.3612 1.56136 10.4167 1.60229 10.4576C1.64322 10.4985 1.69873 10.5215 1.75661 10.5215ZM1.75661 9.64841H4.60285C4.632 9.6492 4.66101 9.64414 4.68817 9.63353C4.71532 9.62292 4.74008 9.60698 4.76098 9.58665C4.78187 9.56631 4.79848 9.54199 4.80982 9.51513C4.82116 9.48827 4.827 9.45941 4.827 9.43025C4.827 9.40109 4.82116 9.37223 4.80982 9.34537C4.79848 9.31851 4.78187 9.29419 4.76098 9.27386C4.74008 9.25352 4.71532 9.23758 4.68817 9.22697C4.66101 9.21636 4.632 9.2113 4.60285 9.21209H1.75661C1.72746 9.2113 1.69846 9.21636 1.6713 9.22697C1.64414 9.23758 1.61938 9.25352 1.59849 9.27386C1.57759 9.29419 1.56098 9.31851 1.54964 9.34537C1.5383 9.37223 1.53246 9.40109 1.53246 9.43025C1.53246 9.45941 1.5383 9.48827 1.54964 9.51513C1.56098 9.54199 1.57759 9.56631 1.59849 9.58665C1.61938 9.60698 1.64414 9.62292 1.6713 9.63353C1.69846 9.64414 1.72746 9.6492 1.75661 9.64841ZM5.16765 10.062L5.43421 10.366C5.453 10.3875 5.47584 10.4051 5.50143 10.4177C5.52701 10.4304 5.55484 10.4379 5.58333 10.4398C5.61181 10.4417 5.64039 10.438 5.66744 10.4288C5.69448 10.4197 5.71945 10.4053 5.74093 10.3865L6.55005 9.67561C6.57199 9.65694 6.58999 9.63409 6.60302 9.6084C6.61605 9.58271 6.62385 9.55469 6.62596 9.52596C6.62807 9.49723 6.62445 9.46837 6.61531 9.44105C6.60617 9.41373 6.59169 9.3885 6.57272 9.36683C6.55375 9.34515 6.53065 9.32746 6.50479 9.31479C6.47892 9.30211 6.45079 9.2947 6.42204 9.29298C6.39328 9.29127 6.36447 9.29529 6.33728 9.3048C6.31009 9.31432 6.28506 9.32914 6.26365 9.34841L5.61757 9.91593L5.49485 9.77625C5.47618 9.75432 5.45333 9.73631 5.42764 9.72328C5.40195 9.71025 5.37393 9.70245 5.3452 9.70034C5.31647 9.69823 5.28761 9.70185 5.26029 9.71099C5.23297 9.72013 5.20774 9.73461 5.18607 9.75358C5.16439 9.77256 5.1467 9.79565 5.13403 9.82152C5.12135 9.84738 5.11394 9.87551 5.11223 9.90427C5.11051 9.93302 5.11453 9.96183 5.12404 9.98902C5.13356 10.0162 5.14838 10.0412 5.16765 10.0627V10.062ZM1.75661 7.68921H3.62221C3.65136 7.69 3.68037 7.68494 3.70753 7.67433C3.73468 7.66372 3.75944 7.64778 3.78033 7.62744C3.80123 7.60711 3.81784 7.58279 3.82918 7.55593C3.84052 7.52907 3.84636 7.50021 3.84636 7.47105C3.84636 7.44189 3.84052 7.41303 3.82918 7.38617C3.81784 7.35931 3.80123 7.33499 3.78033 7.31466C3.75944 7.29432 3.73468 7.27838 3.70753 7.26777C3.68037 7.25716 3.65136 7.2521 3.62221 7.25289H1.75661C1.72746 7.2521 1.69846 7.25716 1.6713 7.26777C1.64414 7.27838 1.61938 7.29432 1.59849 7.31466C1.57759 7.33499 1.56098 7.35931 1.54964 7.38617C1.5383 7.41303 1.53246 7.44189 1.53246 7.47105C1.53246 7.50021 1.5383 7.52907 1.54964 7.55593C1.56098 7.58279 1.57759 7.60711 1.59849 7.62744C1.61938 7.64778 1.64414 7.66372 1.6713 7.67433C1.69846 7.68494 1.72746 7.69 1.75661 7.68921ZM1.75661 6.81609H4.60285C4.632 6.81688 4.66101 6.81182 4.68817 6.80121C4.71532 6.7906 4.74008 6.77466 4.76098 6.75432C4.78187 6.73399 4.79848 6.70967 4.80982 6.68281C4.82116 6.65595 4.827 6.62709 4.827 6.59793C4.827 6.56877 4.82116 6.53991 4.80982 6.51305C4.79848 6.48619 4.78187 6.46187 4.76098 6.44154C4.74008 6.4212 4.71532 6.40526 4.68817 6.39465C4.66101 6.38404 4.632 6.37898 4.60285 6.37977H1.75661C1.72746 6.37898 1.69846 6.38404 1.6713 6.39465C1.64414 6.40526 1.61938 6.4212 1.59849 6.44154C1.57759 6.46187 1.56098 6.48619 1.54964 6.51305C1.5383 6.53991 1.53246 6.56877 1.53246 6.59793C1.53246 6.62709 1.5383 6.65595 1.54964 6.68281C1.56098 6.70967 1.57759 6.73399 1.59849 6.75432C1.61938 6.77466 1.64414 6.7906 1.6713 6.80121C1.69846 6.81182 1.72746 6.81688 1.75661 6.81609ZM5.16765 7.22969L5.43421 7.53369C5.453 7.55519 5.47584 7.57277 5.50143 7.58543C5.52701 7.59809 5.55484 7.60559 5.58333 7.60749C5.61181 7.60939 5.64039 7.60566 5.66744 7.59651C5.69448 7.58736 5.71945 7.57298 5.74093 7.55417L6.55005 6.84329C6.57199 6.82462 6.58999 6.80177 6.60302 6.77608C6.61605 6.75039 6.62385 6.72237 6.62596 6.69364C6.62807 6.66491 6.62445 6.63605 6.61531 6.60873C6.60617 6.58141 6.59169 6.55618 6.57272 6.53451C6.55375 6.51283 6.53065 6.49514 6.50479 6.48246C6.47892 6.46979 6.45079 6.46238 6.42204 6.46067C6.39328 6.45895 6.36447 6.46297 6.33728 6.47248C6.31009 6.482 6.28506 6.49682 6.26365 6.51609L5.61757 7.08377L5.49485 6.94409C5.47631 6.92175 5.45349 6.90335 5.42772 6.88998C5.40196 6.8766 5.37377 6.86852 5.34484 6.86621C5.3159 6.8639 5.28679 6.86741 5.25923 6.87653C5.23167 6.88565 5.20622 6.90019 5.18437 6.91931C5.16252 6.93842 5.14472 6.96172 5.13201 6.98782C5.11931 7.01392 5.11197 7.04231 5.11041 7.07129C5.10885 7.10028 5.11311 7.12929 5.12294 7.1566C5.13277 7.18392 5.14798 7.20899 5.16765 7.23033V7.22969ZM2.43805 4.97065H0.868131C0.788301 4.97103 0.711848 5.00291 0.655399 5.05936C0.59895 5.11581 0.56707 5.19226 0.566691 5.27209V14.4615C0.567111 14.5413 0.599005 14.6178 0.655445 14.6742C0.711885 14.7307 0.788314 14.7626 0.868131 14.763H7.29533C7.37515 14.7626 7.45158 14.7307 7.50802 14.6742C7.56446 14.6178 7.59635 14.5413 7.59677 14.4615V5.27209C7.59639 5.19226 7.56451 5.11581 7.50806 5.05936C7.45161 5.00291 7.37516 4.97103 7.29533 4.97065H5.72589V5.19977H7.14989C7.17854 5.19977 7.20691 5.20542 7.23338 5.21639C7.25985 5.22736 7.2839 5.24343 7.30415 5.2637C7.32441 5.28397 7.34047 5.30803 7.35142 5.33451C7.36237 5.36098 7.36799 5.38936 7.36797 5.41801V14.3161C7.36797 14.3739 7.345 14.4294 7.3041 14.4703C7.2632 14.5112 7.20773 14.5342 7.14989 14.5342H1.01357C0.955718 14.5342 0.900232 14.5112 0.859309 14.4703C0.818385 14.4294 0.795373 14.3739 0.795331 14.3161V5.41753C0.795458 5.35973 0.818507 5.30435 0.859422 5.26352C0.900336 5.2227 0.955773 5.19977 1.01357 5.19977H2.43757V4.97065H2.43805ZM5.69389 5.63561C5.65714 5.73415 5.59118 5.81913 5.50483 5.87917C5.41848 5.93921 5.31586 5.97146 5.21069 5.97161H2.95469C2.8495 5.97147 2.74685 5.93923 2.66048 5.87919C2.5741 5.81914 2.50811 5.73417 2.47133 5.63561H1.23293V14.0979H6.93165V5.63561H5.69389ZM5.21069 4.63177H2.95469C2.93383 4.63202 2.9139 4.6404 2.89913 4.65514C2.88437 4.66987 2.87594 4.68979 2.87565 4.71065V5.45689C2.87594 5.47775 2.88437 5.49767 2.89913 5.5124C2.9139 5.52714 2.93383 5.53552 2.95469 5.53577H5.21069C5.23155 5.53552 5.25148 5.52714 5.26625 5.5124C5.28101 5.49767 5.28944 5.47775 5.28973 5.45689V4.71065C5.28944 4.68979 5.28101 4.66987 5.26625 4.65514C5.25148 4.6404 5.23155 4.63202 5.21069 4.63177ZM8.03309 11.73L10.3944 13.0934V9.44457L8.70621 8.47001L8.03309 8.08185V11.73ZM8.03309 7.57929L8.92413 8.09369L10.3945 8.94265V5.29417L9.40733 4.72425V5.38473H9.40589C9.40584 5.42282 9.39578 5.46022 9.37672 5.4932C9.35767 5.52618 9.33029 5.55358 9.29732 5.57264C9.26435 5.59171 9.22694 5.60179 9.18886 5.60186C9.15077 5.60193 9.11333 5.592 9.08029 5.57305L8.34989 5.15177C8.31176 5.13448 8.27942 5.10657 8.25672 5.07139C8.23402 5.03621 8.22193 4.99524 8.22189 4.95337V4.04137L7.23469 3.47145V4.53417H7.29421C7.48976 4.53464 7.67717 4.61253 7.81543 4.75083C7.95369 4.88912 8.03155 5.07654 8.03197 5.27209V7.57929H8.03309ZM9.62429 4.34729L10.6125 4.91785L13.772 3.09385L12.7838 2.52297L9.62429 4.34697V4.34729ZM12.3485 2.27177L12.0355 2.09097L8.65949 4.04025V4.82825L8.97085 5.00777V4.34697C8.97084 4.30603 8.98236 4.26592 9.00409 4.23123C9.02583 4.19653 9.05689 4.16866 9.09373 4.15081L12.3485 2.27177ZM11.6011 1.83977L10.6125 1.26921L7.45293 3.09321L8.44157 3.66377L11.6011 1.83977ZM12.7613 7.48249L13.7021 6.93929C13.7488 6.9091 13.7823 6.8621 13.7954 6.80798C13.8086 6.75387 13.8004 6.69677 13.7727 6.64848C13.7449 6.60019 13.6997 6.56439 13.6464 6.54848C13.593 6.53257 13.5355 6.53776 13.4859 6.56297L12.5451 7.10601C12.4952 7.13477 12.4588 7.18214 12.4438 7.23772C12.4289 7.2933 12.4366 7.35255 12.4653 7.40246C12.4939 7.45237 12.5412 7.48887 12.5968 7.50393C12.6523 7.519 12.7116 7.5114 12.7616 7.48281L12.7613 7.48249ZM10.8307 8.94377L13.9891 7.11977V3.47177L10.8307 5.29577V8.94377ZM10.8307 9.44553V13.0935L13.9891 11.2695V7.62153L10.8307 9.44553Z" fill="current"/>
</svg>
