<svg width="10" height="11" viewBox="0 0 10 11" fill="none" xmlns="http://www.w3.org/2000/svg">
<path d="M10 0.195167V2.14684C10 2.26394 9.93333 2.34201 9.83333 2.34201H0.166667C0.0666667 2.34201 0 2.26394 0 2.14684V0.195167C0 0.0780669 0.0666667 0 0.166667 0H9.83333C9.93333 0 10 0.0780669 10 0.195167ZM0.35 2.73234H9.65V10.3048C9.65 10.4219 9.58333 10.5 9.48333 10.5H0.516667C0.416667 10.5 0.35 10.4219 0.35 10.3048V2.73234ZM3.43333 4.80112C3.43333 4.91822 3.5 4.99628 3.6 4.99628H6.4C6.5 4.99628 6.56667 4.91822 6.56667 4.80112V4.02045C6.56667 3.90335 6.5 3.82528 6.4 3.82528H3.6C3.5 3.82528 3.43333 3.90335 3.43333 4.02045V4.80112Z" fill="#393939"/>
</svg>
