<svg width="24" height="20" viewBox="0 0 24 20" fill="none" xmlns="http://www.w3.org/2000/svg">
<path d="M22.3436 1.66739H20.6872V0.436491C20.6872 0.320726 20.6436 0.209703 20.566 0.127845C20.4883 0.0459874 20.383 0 20.2732 0C20.1633 0 20.058 0.0459874 19.9803 0.127845C19.9027 0.209703 19.8591 0.320726 19.8591 0.436491V1.66739H17.4035V0.436491C17.4035 0.320726 17.3598 0.209703 17.2822 0.127845C17.2045 0.0459874 17.0992 0 16.9894 0C16.8796 0 16.7742 0.0459874 16.6966 0.127845C16.6189 0.209703 16.5753 0.320726 16.5753 0.436491V1.66739H14.1156V0.436491C14.1156 0.320726 14.0719 0.209703 13.9943 0.127845C13.9166 0.0459874 13.8113 0 13.7015 0C13.5917 0 13.4863 0.0459874 13.4087 0.127845C13.331 0.209703 13.2874 0.320726 13.2874 0.436491V1.66739H10.8318V0.436491C10.8318 0.320726 10.7882 0.209703 10.7105 0.127845C10.6329 0.0459874 10.5275 0 10.4177 0C10.3079 0 10.2026 0.0459874 10.1249 0.127845C10.0472 0.209703 10.0036 0.320726 10.0036 0.436491V1.66739H7.54803V0.436491C7.54803 0.320726 7.50441 0.209703 7.42675 0.127845C7.34909 0.0459874 7.24377 0 7.13394 0C7.02412 0 6.91879 0.0459874 6.84113 0.127845C6.76347 0.209703 6.71985 0.320726 6.71985 0.436491V1.66739H5.19184C4.75254 1.66739 4.33123 1.85134 4.0206 2.17877C3.70997 2.50621 3.53546 2.9503 3.53546 3.41336V16.9184C0.479445 16.4819 -0.315616 14.2689 2.89776 13.182C2.94969 13.1648 2.9979 13.137 3.03964 13.1002C3.08137 13.0633 3.11582 13.0182 3.141 12.9673C3.16619 12.9165 3.18162 12.8609 3.18643 12.8037C3.19123 12.7466 3.1853 12.689 3.16899 12.6342C3.15267 12.5795 3.12629 12.5287 3.09135 12.4847C3.0564 12.4407 3.01358 12.4044 2.96532 12.3778C2.91706 12.3513 2.86431 12.335 2.81009 12.3299C2.75587 12.3249 2.70123 12.3311 2.6493 12.3483C-1.65314 13.8324 -0.249361 17.4116 3.53546 17.7914V18.254C3.53546 18.7171 3.70997 19.1612 4.0206 19.4886C4.33123 19.8161 4.75254 20 5.19184 20H22.3436C22.7829 20 23.2042 19.8161 23.5149 19.4886C23.8255 19.1612 24 18.7171 24 18.254V3.41336C24 3.18407 23.9572 2.95704 23.8739 2.74521C23.7907 2.53338 23.6687 2.3409 23.5149 2.17877C23.361 2.01665 23.1785 1.88804 22.9775 1.8003C22.7765 1.71255 22.5611 1.66739 22.3436 1.66739ZM23.1718 18.254C23.1718 18.4856 23.0846 18.7076 22.9292 18.8713C22.7739 19.035 22.5633 19.127 22.3436 19.127H5.19184C4.97219 19.127 4.76154 19.035 4.60622 18.8713C4.45091 18.7076 4.36365 18.4856 4.36365 18.254V17.8568C6.16082 17.8568 7.98697 17.1628 9.01393 16.0236C9.08971 15.9396 9.13075 15.8274 9.12803 15.7116C9.12532 15.5958 9.07906 15.4858 8.99943 15.4059C8.91981 15.3261 8.81335 15.2828 8.70346 15.2857C8.59358 15.2885 8.48927 15.3373 8.41349 15.4212C7.54803 16.3815 5.92893 16.9751 4.36365 16.9795V6.55609H23.1718V18.254Z" fill="white"/>
<path d="M7.3741 13.0118L11.5523 16.1108C11.5902 16.1355 11.6305 16.156 11.6724 16.1719C11.764 16.211 11.8665 16.211 11.9581 16.1719L21.5154 11.7459C21.74 11.6406 21.9309 11.4689 22.0648 11.2516C22.1987 11.0343 22.27 10.7807 22.27 10.5216C22.27 10.2624 22.1987 10.0089 22.0648 9.79156C21.9309 9.57425 21.74 9.40254 21.5154 9.29722C21.3491 9.22278 21.1702 9.18442 20.9895 9.18442C20.8088 9.18442 20.63 9.22278 20.4636 9.29722L18.625 10.1702L12.6414 8.06195C12.5454 8.02293 12.4392 8.02293 12.3432 8.06195L10.9436 8.71232C10.8724 8.74553 10.8115 8.79924 10.7679 8.86727C10.7244 8.9353 10.6999 9.01491 10.6973 9.09694C10.6947 9.17898 10.7141 9.26013 10.7533 9.33107C10.7924 9.40201 10.8498 9.45987 10.9187 9.498L15.1177 11.7678L11.9912 13.2387L8.98492 11.7154C8.93098 11.6894 8.87237 11.676 8.81308 11.676C8.75378 11.676 8.69518 11.6894 8.64123 11.7154L7.43621 12.2566C7.36994 12.2889 7.31293 12.339 7.27097 12.402C7.22901 12.465 7.20359 12.5385 7.19729 12.6152C7.19098 12.6919 7.20402 12.7689 7.23507 12.8386C7.26612 12.9082 7.31408 12.9679 7.3741 13.0118Z" fill="white"/>
</svg>
