<svg width="16" height="16" viewBox="0 0 16 16" fill="current" xmlns="http://www.w3.org/2000/svg">
<path d="M9.39287 4.25133C9.7665 3.87858 10.2771 3.73114 10.7618 3.80376C10.7636 3.80376 10.7645 3.80376 10.7662 3.80376C10.9355 3.78757 11.09 3.71757 11.2295 3.62001L8.99649 1.38654C8.48023 0.871154 7.64372 0.871154 7.1279 1.38654L4.78549 3.72895C4.69317 3.5872 4.62842 3.43276 4.6118 3.26432C4.6118 3.26257 4.61092 3.26082 4.61092 3.25907C4.69055 2.73362 4.52955 2.17886 4.12573 1.77461C3.44978 1.09866 2.35339 1.09866 1.67744 1.77461C1.00061 2.45055 1.00061 3.54695 1.67744 4.22289C2.08169 4.62715 2.63645 4.78859 3.1619 4.70853C3.16365 4.7094 3.1654 4.7094 3.16715 4.7094C3.33559 4.72559 3.49003 4.79078 3.63222 4.88265L1.28937 7.22507C0.773986 7.74132 0.773986 8.57784 1.28937 9.09366L3.52284 11.3267C3.62041 11.1876 3.69041 11.0327 3.70659 10.8642C3.70659 10.8625 3.70659 10.8607 3.70747 10.859C3.63397 10.3747 3.78185 9.86367 4.15416 9.49091C4.77805 8.86703 5.78781 8.86703 6.4117 9.49004C7.03471 10.1139 7.03471 11.1237 6.4117 11.7476C6.03807 12.1203 5.5275 12.2686 5.04274 12.1951C5.04099 12.1951 5.04012 12.196 5.03749 12.196C4.86905 12.2113 4.71549 12.2813 4.57505 12.3798L6.80852 14.6128C7.3239 15.1291 8.16042 15.1291 8.67667 14.6128L11.0191 12.2704C11.1114 12.4113 11.177 12.5661 11.1923 12.7346C11.1923 12.7363 11.1932 12.7381 11.1932 12.7398C11.1136 13.2653 11.2746 13.82 11.6784 14.2252C12.3544 14.9011 13.4507 14.9011 14.1267 14.2252C14.8035 13.5484 14.8035 12.452 14.1267 11.776C13.7224 11.3718 13.1681 11.2112 12.6422 11.2908C12.6405 11.2908 12.6387 11.2899 12.637 11.2899C12.4685 11.2746 12.3141 11.2094 12.1719 11.1167L14.5148 8.77428C15.0301 8.25802 15.0301 7.42238 14.5148 6.90612L12.2813 4.67265C12.1837 4.81265 12.1137 4.96666 12.0975 5.13597C12.0975 5.13772 12.0975 5.1386 12.0975 5.14035C12.1702 5.62467 12.0223 6.13655 11.65 6.5093C11.0261 7.13231 10.0163 7.13231 9.39243 6.5093C8.76986 5.88586 8.76986 4.87478 9.39287 4.25133Z" stroke="current" stroke-width="0.8"/>
</svg>
