<svg width="22" height="24" viewBox="0 0 22 24" fill="none" xmlns="http://www.w3.org/2000/svg">
<path d="M21.5654 15.1458L20.6263 14.3853C20.0568 13.9213 19.7436 13.221 19.781 12.4955C19.781 12.3342 19.781 12.1613 19.781 12C19.781 11.8387 19.781 11.6658 19.781 11.5045C19.7436 10.779 20.0568 10.0787 20.6263 9.61475L21.5654 8.85423C22.011 8.49954 22.1302 7.88067 21.8472 7.39082L20.4854 5.08623C20.1968 4.60506 19.5982 4.39627 19.0649 4.59074L17.891 5.00557C17.1982 5.25972 16.4239 5.17859 15.8014 4.78663C15.5254 4.59949 15.235 4.43383 14.9327 4.29115C14.2721 3.95863 13.8107 3.33904 13.6883 2.62032L13.4887 1.46802C13.3957 0.904486 12.8964 0.49275 12.3148 0.500097H9.61476C9.0332 0.49275 8.53383 0.904486 8.44082 1.46802L8.24125 2.62032C8.12913 3.32997 7.68639 3.94775 7.04384 4.29115C6.74155 4.43383 6.4511 4.59949 6.17513 4.78663C5.5526 5.17859 4.77831 5.25972 4.08552 5.00557L2.91159 4.59074C2.38514 4.40898 1.80109 4.61613 1.51461 5.08623L0.152842 7.39082C-0.130164 7.88067 -0.0110156 8.49954 0.434587 8.85423L1.37373 9.61475C1.94315 10.0787 2.25639 10.779 2.21897 11.5045C2.21897 11.6658 2.21897 11.8387 2.21897 12C2.21897 12.1613 2.21897 12.3342 2.21897 12.4955C2.25639 13.221 1.94315 13.9213 1.37373 14.3853L0.434587 15.1458C-0.0110156 15.5005 -0.130164 16.1193 0.152842 16.6092L1.51461 18.9138C1.80325 19.3949 2.40182 19.6037 2.93507 19.4093L4.109 18.9944C4.80179 18.7403 5.57608 18.8214 6.19861 19.2134C6.47457 19.4005 6.76503 19.5662 7.06732 19.7089C7.72789 20.0414 8.18934 20.661 8.31169 21.3797L8.51126 22.532C8.60427 23.0955 9.10363 23.5073 9.68519 23.4999H12.3852C12.9668 23.5073 13.4662 23.0955 13.5592 22.532L13.7587 21.3797C13.8811 20.661 14.3425 20.0414 15.0031 19.7089C15.3054 19.5662 15.5959 19.4005 15.8718 19.2134C16.4944 18.8214 17.2686 18.7403 17.9614 18.9944L19.1354 19.4093C19.6479 19.5666 20.2038 19.3626 20.4854 18.9138L21.8472 16.6092C22.1302 16.1193 22.011 15.5005 21.5654 15.1458ZM11 15.4569C9.05496 15.4569 7.4782 13.9092 7.4782 12C7.4782 10.0908 9.05496 8.54312 11 8.54312C12.945 8.54312 14.5218 10.0908 14.5218 12C14.5218 12.9168 14.1508 13.7961 13.4903 14.4444C12.8298 15.0927 11.934 15.4569 11 15.4569Z" fill="white"/>
</svg>
