<svg width="23" height="22" viewBox="0 0 23 22" fill="none" xmlns="http://www.w3.org/2000/svg">
<path d="M22.5 11.2331C22.3803 10.6017 22.2606 9.96925 22.1409 9.33585L21.8011 7.50177C21.6301 6.5717 21.457 5.64063 21.2817 4.70856C21.2817 4.65143 21.2593 4.58829 21.2464 4.53116C21.2134 4.28359 21.1499 4.04044 21.0573 3.80655C20.7395 3.13009 20.202 2.56502 19.5216 2.19196C18.0511 1.32107 16.4877 0.596536 14.8567 0.0301571C14.8013 0.0107935 14.7428 0.000619641 14.6836 9.04687e-05H8.31638C8.26051 -0.00102415 8.20496 0.00817022 8.15287 0.0271507C6.85234 0.504418 5.58738 1.06291 4.36651 1.69887L4.1517 1.81312C3.57553 2.07951 3.0493 2.43187 2.59356 2.85644C2.08447 3.40806 1.76979 4.09386 1.69265 4.81981C1.41693 6.40733 1.11236 8.01591 0.820606 9.57037C0.713737 10.1216 0.606869 10.6728 0.5 11.224H4.37613V7.7874H4.67109V11.5969C4.67109 11.654 4.67109 11.7021 4.67109 11.7532C4.67109 13.1784 4.67109 14.6126 4.67109 16.0438V21.7565C4.67109 21.9308 4.74483 22 4.93078 22H18.0756C18.2712 22 18.3321 21.9459 18.3321 21.7655V7.7874H18.6271V11.2331H22.5ZM11.5064 3.17816C10.7559 3.17778 10.0324 2.91565 9.47657 2.44273C8.92075 1.96982 8.57234 1.31993 8.49913 0.619467H14.5169C14.4429 1.32019 14.0939 1.97011 13.5375 2.44296C12.9812 2.91582 12.2573 3.17785 11.5064 3.17816Z" fill="#1C1C1C"/>
</svg>
