<svg width="15" height="14" viewBox="0 0 15 14" fill="current" xmlns="http://www.w3.org/2000/svg">
<path fill-rule="evenodd" clip-rule="evenodd" d="M0.830777 1.60843C0.860615 1.57911 0.895552 1.56445 0.935586 1.56445H3.2222C3.26733 1.56445 3.30481 1.57911 3.33465 1.60843C3.35954 1.63775 3.37214 1.67206 3.37214 1.71106C3.37214 1.75005 3.35954 1.78436 3.33465 1.81368C3.30481 1.84301 3.26733 1.85767 3.2222 1.85767H1.08553V3.09652H13.7556V1.85767H11.7464C11.7065 1.85767 11.6714 1.84301 11.6416 1.81368C11.6114 1.78436 11.5964 1.75005 11.5964 1.71106C11.5964 1.67206 11.6114 1.63775 11.6416 1.60843C11.6714 1.57911 11.7066 1.56445 11.7464 1.56445H13.9055C13.9454 1.56445 13.9805 1.57911 14.0104 1.60843C14.0405 1.63775 14.0555 1.67206 14.0555 1.71106V3.24313C14.0555 3.28227 14.0405 3.31643 14.0104 3.34575C13.9805 3.37493 13.9453 3.38974 13.9055 3.38974H0.935586C0.895402 3.38974 0.860615 3.37493 0.830777 3.34575C0.800639 3.31643 0.785645 3.28213 0.785645 3.24313V1.71106C0.785645 1.67191 0.800639 1.63775 0.830777 1.60843ZM4.04688 1.14661V1.63775C4.14674 1.67191 4.2442 1.7307 4.33911 1.81368C4.46416 1.93581 4.52654 2.0921 4.52654 2.28283C4.52654 2.46859 4.46416 2.62487 4.33911 2.75184C4.20446 2.87895 4.04193 2.94258 3.8518 2.94258C3.65208 2.94258 3.48954 2.88144 3.36449 2.75932C3.22445 2.61271 3.15487 2.45378 3.15487 2.28283C3.15487 2.09708 3.2246 1.94065 3.36449 1.81368C3.4696 1.70622 3.59705 1.6401 3.74699 1.61561V1.14661C3.74699 1.10746 3.76199 1.0733 3.79213 1.04398C3.82196 1.01466 3.8569 1 3.89693 1C3.94207 1 3.97955 1.01466 4.00939 1.04398C4.03428 1.0733 4.04688 1.10761 4.04688 1.14661ZM4.04688 2.05544C4.04688 2.15323 3.9968 2.20205 3.89693 2.20205C3.85675 2.20205 3.82196 2.18739 3.79213 2.15807C3.76199 2.12875 3.74699 2.09459 3.74699 2.05544V1.91631C3.68702 1.93097 3.62959 1.96513 3.57456 2.01879C3.49464 2.0921 3.45476 2.18021 3.45476 2.28283C3.45476 2.38531 3.49464 2.47343 3.57456 2.54673C3.65448 2.6152 3.74699 2.64936 3.85195 2.64936C3.95706 2.64936 4.04928 2.61271 4.12964 2.5394C4.19442 2.47577 4.22681 2.3903 4.22681 2.28283C4.22681 2.17537 4.19202 2.08726 4.122 2.01879C4.09216 1.98962 4.06697 1.96997 4.04703 1.96029L4.04688 2.05544ZM4.60916 1.56445H10.4492C10.5494 1.56445 10.5992 1.61327 10.5992 1.71106C10.5992 1.7502 10.5869 1.78436 10.5617 1.81368C10.5319 1.84301 10.4944 1.85767 10.4492 1.85767H4.60916C4.56897 1.85767 4.53419 1.84301 4.50435 1.81368C4.47421 1.78436 4.45922 1.75005 4.45922 1.71106C4.45922 1.67206 4.47421 1.63775 4.50435 1.60843C4.53419 1.57896 4.56897 1.56445 4.60916 1.56445ZM11.2966 1.14661V1.63775C11.3964 1.67191 11.4939 1.7307 11.5891 1.81368C11.7188 1.94065 11.7839 2.09723 11.7839 2.28283C11.7839 2.45862 11.7188 2.6152 11.5891 2.75184C11.4541 2.87895 11.2916 2.94258 11.1018 2.94258C10.9067 2.94258 10.7442 2.87895 10.6145 2.75184C10.4845 2.61505 10.4194 2.45862 10.4194 2.28283C10.4194 2.09708 10.4845 1.94065 10.6145 1.81368C10.7193 1.70622 10.8467 1.6401 10.9967 1.61561V1.14661C10.9967 1.10746 11.0117 1.0733 11.0418 1.04398C11.0716 1.01466 11.1069 1 11.1466 1C11.2465 1 11.2966 1.04882 11.2966 1.14661ZM10.7193 2.28283C10.7193 2.38531 10.7568 2.47343 10.8317 2.54673C10.9018 2.6152 10.9916 2.64936 11.1018 2.64936C11.2016 2.64936 11.2942 2.6152 11.3792 2.54673C11.4492 2.47826 11.484 2.39045 11.484 2.28283C11.484 2.17522 11.4492 2.08975 11.3792 2.02627C11.3441 1.99211 11.3165 1.96997 11.2966 1.96029V2.05544C11.2966 2.15323 11.2465 2.20205 11.1466 2.20205C11.1067 2.20205 11.0716 2.18739 11.0418 2.15807C11.0117 2.12875 10.9967 2.09459 10.9967 2.05544V1.91631C10.9416 1.93097 10.8869 1.96513 10.8317 2.01879C10.7568 2.0921 10.7193 2.18021 10.7193 2.28283ZM14.1305 3.86622V10.1778C14.1305 10.2119 14.1179 10.2461 14.093 10.2804L11.4613 12.956C11.4315 12.9852 11.394 13 11.3489 13H1.01056C0.970373 13 0.935586 12.9852 0.905748 12.956C0.87561 12.9267 0.860615 12.8924 0.860615 12.8534V3.86622C0.860615 3.82707 0.87561 3.79291 0.905748 3.76359C0.935586 3.73427 0.970523 3.71961 1.01056 3.71961H13.9805C14.0804 3.71961 14.1305 3.76843 14.1305 3.86622ZM10.8842 4.50397C10.9592 4.4355 11.059 4.40134 11.1841 4.40134H12.3388C12.4636 4.40134 12.5585 4.4355 12.6234 4.50397C12.6934 4.57244 12.7285 4.66539 12.7285 4.78253V5.91875C12.7285 6.04088 12.6934 6.13618 12.6234 6.20464C12.5583 6.27311 12.4636 6.30712 12.3388 6.30712H11.1841C11.0541 6.30712 10.9542 6.27311 10.8842 6.20464C10.8092 6.13618 10.7718 6.04088 10.7718 5.91875V4.78253C10.7718 4.66524 10.8092 4.57229 10.8842 4.50397ZM11.0716 4.78253V5.91875C11.0716 5.9579 11.0766 5.98238 11.0866 5.99206C11.1019 6.00672 11.134 6.0139 11.1841 6.0139H12.3388C12.3787 6.0139 12.4036 6.00906 12.4138 5.99924C12.4237 5.98957 12.4288 5.96259 12.4288 5.91861V4.78238C12.4288 4.74324 12.4238 4.71875 12.4138 4.70908C12.4036 4.6994 12.3787 4.69427 12.3388 4.69427H11.1841C11.134 4.69427 11.1018 4.70175 11.0866 4.71626C11.0766 4.72623 11.0716 4.74837 11.0716 4.78253ZM10.4569 5.91875C10.4569 6.04088 10.4218 6.13618 10.3521 6.20464C10.2771 6.27311 10.1745 6.30712 10.0445 6.30712H8.89014C8.77004 6.30712 8.67513 6.27311 8.60525 6.20464C8.53538 6.13618 8.50014 6.04088 8.50014 5.91875V4.78253C8.50014 4.66524 8.53523 4.57229 8.60525 4.50397C8.67528 4.43565 8.77019 4.40134 8.89014 4.40134H10.0445C10.1745 4.40134 10.2771 4.4355 10.3521 4.50397C10.4218 4.57244 10.4569 4.66539 10.4569 4.78253V5.91875ZM12.7285 7.13561V8.25718C12.7285 8.52107 12.5985 8.65288 12.3387 8.65288H11.1841C11.0541 8.65288 10.9542 8.61886 10.8842 8.5504C10.8092 8.47709 10.7718 8.3793 10.7718 8.25718V7.13561C10.7718 7.01349 10.8092 6.9157 10.8842 6.84239C10.9542 6.77393 11.0541 6.73977 11.1841 6.73977H12.3388C12.5985 6.73977 12.7285 6.87172 12.7285 7.13561ZM12.3388 7.03299H11.1841C11.1393 7.03299 11.1091 7.04032 11.0941 7.05498C11.0791 7.06964 11.0716 7.09647 11.0716 7.13561V8.25718C11.0716 8.30116 11.0793 8.32799 11.0941 8.33781C11.1091 8.35247 11.1393 8.35966 11.1841 8.35966H12.3388C12.3787 8.35966 12.4012 8.35482 12.4061 8.345C12.4211 8.33532 12.4286 8.30585 12.4286 8.25703V7.13547C12.4286 7.09148 12.421 7.06216 12.4061 7.0475C12.3962 7.03782 12.3736 7.03299 12.3388 7.03299ZM10.4944 9.49588V10.6248C10.4944 10.747 10.4593 10.8422 10.3896 10.9107C10.3146 10.979 10.2144 11.0133 10.0897 11.0133H8.92763C8.7525 11.0133 8.63764 10.9522 8.58261 10.83L8.57497 10.8152C8.55008 10.7567 8.53748 10.6931 8.53748 10.6246V9.49574C8.53748 9.43225 8.55008 9.36877 8.57497 9.30514C8.64499 9.17334 8.76239 9.10722 8.92763 9.10722H10.0897C10.2144 9.10722 10.3146 9.14138 10.3896 9.20985C10.4593 9.27861 10.4944 9.37376 10.4944 9.49588ZM10.4569 8.25718C10.4569 8.38414 10.4218 8.48193 10.3521 8.5504C10.2771 8.61886 10.1745 8.65288 10.0445 8.65288H8.89014C8.77004 8.65288 8.67513 8.61886 8.60525 8.5504C8.53523 8.47709 8.50014 8.3793 8.50014 8.25718V7.13561C8.50014 7.01349 8.53523 6.9157 8.60525 6.84239C8.67528 6.77393 8.77019 6.73977 8.89014 6.73977H10.0445C10.1745 6.73977 10.2771 6.77393 10.3521 6.84239C10.4218 6.91086 10.4569 7.00865 10.4569 7.13561V8.25718ZM8.79988 4.78253V5.91875C8.79988 5.96274 8.80752 5.98957 8.82237 5.99939C8.83226 6.00906 8.85491 6.01405 8.88999 6.01405H10.0444C10.0945 6.01405 10.127 6.00672 10.1419 5.9922C10.1518 5.98253 10.1568 5.95804 10.1568 5.9189V4.78268C10.1568 4.74851 10.1519 4.72638 10.1419 4.7167C10.1269 4.70204 10.0945 4.69471 10.0444 4.69471H8.88999C8.85491 4.69471 8.83002 4.69969 8.81502 4.70952C8.80483 4.72388 8.79988 4.74837 8.79988 4.78253ZM8.2154 4.78253V5.91875C8.2154 6.04088 8.18032 6.13618 8.1103 6.20464C8.03532 6.27311 7.93546 6.30712 7.81041 6.30712H6.65586C6.53081 6.30712 6.43335 6.27311 6.36333 6.20464C6.2933 6.13618 6.25852 6.04088 6.25852 5.91875V4.78253C6.25852 4.66524 6.2933 4.57229 6.36333 4.50397C6.43335 4.43565 6.53081 4.40134 6.65586 4.40134H7.81026C7.93531 4.40134 8.03517 4.4355 8.11015 4.50397C8.18017 4.57229 8.2154 4.66524 8.2154 4.78253ZM7.74294 5.19304L7.27812 5.77947C7.24798 5.81862 7.2081 5.83812 7.15802 5.83812C7.13313 5.83812 7.10794 5.83064 7.08305 5.81613L6.71584 5.58888C6.63067 5.54006 6.61568 5.47159 6.67071 5.38363C6.69065 5.34947 6.72079 5.32748 6.76067 5.31765C6.80085 5.31282 6.83834 5.32029 6.87313 5.33964L7.12818 5.49359L7.51038 5.0171C7.53032 4.98294 7.56286 4.96344 7.60784 4.95861C7.64773 4.95377 7.68521 4.96344 7.7203 4.98778C7.75014 5.01227 7.76768 5.04643 7.77278 5.09041C7.77787 5.12941 7.76783 5.16371 7.74294 5.19304ZM7.90023 4.71655C7.89033 4.70189 7.86034 4.69456 7.81026 4.69456H6.65586C6.59079 4.69456 6.5584 4.72388 6.5584 4.78268V5.9189C6.5584 5.95804 6.56605 5.98487 6.58089 5.99953C6.59079 6.00921 6.61568 6.0142 6.65586 6.0142H7.81026C7.85539 6.0142 7.88523 6.00687 7.90023 5.99235C7.91012 5.98267 7.91552 5.95819 7.91552 5.91905V4.78282C7.91552 4.74837 7.91027 4.72623 7.90023 4.71655ZM5.54629 4.4012C5.67134 4.4012 5.76851 4.43536 5.83853 4.50382C5.90855 4.57229 5.94364 4.66524 5.94364 4.78238V5.91861C5.94364 6.17767 5.81094 6.30698 5.54629 6.30698H4.3766C4.25679 6.30698 4.16158 6.27296 4.09201 6.2045C4.02199 6.13603 3.9869 6.04073 3.9869 5.91861V4.78238C3.9869 4.66509 4.02199 4.57214 4.09201 4.50382C4.16173 4.43536 4.25694 4.4012 4.3766 4.4012H5.54629ZM5.62891 4.71655C5.61871 4.70189 5.59143 4.69456 5.54629 4.69456H4.3766C4.34181 4.69456 4.31692 4.69955 4.30163 4.70937C4.29173 4.72403 4.28663 4.74851 4.28663 4.78268V5.9189C4.28663 5.96288 4.29428 5.98971 4.30912 5.99953C4.31902 6.00921 4.34166 6.0142 4.37645 6.0142H5.54614C5.58603 6.0142 5.61347 6.00936 5.62876 5.99953C5.63866 5.98487 5.64376 5.95804 5.64376 5.9189V4.78268C5.64376 4.74837 5.63881 4.72623 5.62891 4.71655ZM6.65586 6.73977H7.81026C7.94026 6.73977 8.04012 6.77393 8.11015 6.84239C8.18017 6.9157 8.21525 7.01349 8.21525 7.13561V8.25718C8.21525 8.38414 8.18017 8.48193 8.11015 8.5504C8.04012 8.61886 7.94026 8.65288 7.81026 8.65288H6.65586C6.53081 8.65288 6.43335 8.61886 6.36333 8.5504C6.2933 8.47709 6.25852 8.3793 6.25852 8.25718V7.13561C6.25852 7.01349 6.2933 6.9157 6.36333 6.84239C6.43335 6.77393 6.53081 6.73977 6.65586 6.73977ZM6.58089 7.05498C6.5659 7.06465 6.5584 7.09163 6.5584 7.13561V8.25718C6.5584 8.30116 6.56605 8.33048 6.58089 8.34514C6.59079 8.35482 6.61568 8.3598 6.65586 8.3598H7.81026C7.85539 8.3598 7.88523 8.35497 7.90023 8.34514C7.91012 8.33048 7.91552 8.30116 7.91552 8.25718V7.13561C7.91552 7.09163 7.91027 7.0648 7.90023 7.05498C7.88523 7.04017 7.85539 7.03299 7.81026 7.03299H6.65586C6.61583 7.03299 6.59094 7.04017 6.58089 7.05498ZM5.62891 7.05498C5.61362 7.04017 5.58618 7.03299 5.54629 7.03299H4.3766C4.34181 7.03299 4.31917 7.03782 4.30927 7.04779C4.29428 7.06245 4.28678 7.09178 4.28678 7.13576V8.25732C4.28678 8.30614 4.29443 8.33547 4.30927 8.34529C4.31917 8.35497 4.34181 8.35995 4.3766 8.35995H5.54629C5.58618 8.35995 5.61362 8.35511 5.62891 8.34529C5.63881 8.33063 5.64391 8.30131 5.64391 8.25732V7.13576C5.64376 7.09163 5.63881 7.06465 5.62891 7.05498ZM5.54629 6.73977C5.81109 6.73977 5.94364 6.87172 5.94364 7.13561V8.25718C5.94364 8.52107 5.81094 8.65288 5.54629 8.65288H4.3766C4.25679 8.65288 4.16158 8.61886 4.09201 8.5504C4.02199 8.47709 3.9869 8.3793 3.9869 8.25718V7.13561C3.9869 7.01349 4.02199 6.9157 4.09201 6.84239C4.16173 6.77393 4.25694 6.73977 4.3766 6.73977H5.54629ZM4.32427 9.49588V10.6248C4.32427 10.6639 4.33192 10.6908 4.34676 10.7054C4.35666 10.7152 4.38155 10.7202 4.42173 10.7202H5.57613C5.61632 10.7202 5.64375 10.7154 5.65875 10.7054C5.66865 10.6908 5.67374 10.6639 5.67374 10.6248V9.49588C5.67374 9.45674 5.6688 9.43005 5.65875 9.41525C5.64375 9.40557 5.61632 9.40059 5.57613 9.40059H4.42173C4.38155 9.40059 4.35666 9.40542 4.34676 9.41525C4.33177 9.43005 4.32427 9.45688 4.32427 9.49588ZM5.57613 9.10751C5.70118 9.10751 5.79865 9.14167 5.86867 9.21014C5.93869 9.27861 5.97348 9.37376 5.97348 9.49588V10.6248C5.97348 10.8838 5.84108 11.0133 5.57613 11.0133H4.42173C4.29668 11.0133 4.19922 10.979 4.12949 10.9107C4.05947 10.8422 4.02438 10.747 4.02438 10.6248V9.49588C4.02438 9.37376 4.05947 9.27861 4.12949 9.21014C4.19922 9.14167 4.29668 9.10751 4.42173 9.10751H5.57613ZM6.40846 9.21014C6.47848 9.14167 6.57594 9.10751 6.70069 9.10751H7.8554C7.98015 9.10751 8.07761 9.14167 8.14763 9.21014C8.21765 9.27861 8.25274 9.37376 8.25274 9.49588V10.6248C8.25274 10.747 8.21765 10.8422 8.14763 10.9107C8.07761 10.979 7.98015 11.0133 7.8554 11.0133H6.70069C6.57594 11.0133 6.47848 10.979 6.40846 10.9107C6.33843 10.8422 6.30365 10.747 6.30365 10.6248V9.49588C6.30365 9.37376 6.33843 9.27861 6.40846 9.21014ZM6.62572 9.41539C6.61073 9.4302 6.60353 9.45688 6.60353 9.49603V10.6249C6.60353 10.6641 6.61088 10.6909 6.62572 10.7056C6.63562 10.7154 6.66081 10.7204 6.70069 10.7204H7.8554C7.89528 10.7204 7.92272 10.7155 7.93771 10.7056C7.94761 10.6909 7.95301 10.6641 7.95301 10.6249V9.49603C7.95301 9.45688 7.94776 9.4302 7.93771 9.41539C7.92272 9.40572 7.89528 9.40073 7.8554 9.40073H6.70069C6.66096 9.40073 6.63577 9.40557 6.62572 9.41539ZM10.142 7.05498C10.127 7.04017 10.0946 7.03299 10.0445 7.03299H8.89014C8.85506 7.03299 8.83241 7.03782 8.82252 7.04779C8.80752 7.06245 8.80003 7.09178 8.80003 7.13576V8.25732C8.80003 8.30614 8.80767 8.33547 8.82252 8.34529C8.83241 8.35497 8.85506 8.35995 8.89014 8.35995H10.0445C10.0946 8.35995 10.1272 8.35262 10.142 8.33811C10.1519 8.32843 10.157 8.30145 10.157 8.25747V7.13591C10.157 7.09163 10.1521 7.06465 10.142 7.05498ZM8.85266 9.43005C8.84246 9.43005 8.83736 9.4519 8.83736 9.49588V10.6248L8.85266 10.7054C8.86255 10.7152 8.88744 10.7202 8.92763 10.7202H10.0897C10.1345 10.7202 10.1646 10.7127 10.1796 10.6982C10.1895 10.6886 10.1946 10.6641 10.1946 10.6249V9.49603C10.1946 9.45688 10.1897 9.43255 10.1796 9.42272C10.1646 9.40806 10.1345 9.40088 10.0897 9.40088H8.92763C8.87755 9.40073 8.85266 9.41041 8.85266 9.43005ZM11.3489 10.0605H13.8306V4.01283H1.1605V12.7068H11.1989V10.2071C11.1989 10.1678 11.2142 10.1338 11.2441 10.1045C11.2739 10.0751 11.3092 10.0605 11.3489 10.0605ZM11.4988 12.4869L13.6057 10.3537H11.4988V12.4869ZM3.77683 7.13561V8.25718C3.77683 8.52107 3.64713 8.65288 3.38698 8.65288H2.21759C2.09748 8.65288 2.00257 8.61886 1.9327 8.5504C1.86268 8.47709 1.82759 8.3793 1.82759 8.25718V7.13561C1.82759 7.01349 1.86268 6.9157 1.9327 6.84239C2.00272 6.77393 2.09763 6.73977 2.21759 6.73977H3.38698C3.51203 6.73977 3.60695 6.77393 3.67187 6.84239C3.74204 6.91086 3.77683 7.00865 3.77683 7.13561ZM3.38713 7.03299H2.21774C2.18265 7.03299 2.16001 7.03782 2.15011 7.04779C2.13512 7.06245 2.12762 7.09178 2.12762 7.13576V8.25732C2.12762 8.30614 2.13527 8.33547 2.15011 8.34529C2.16001 8.35497 2.18265 8.35995 2.21774 8.35995H3.38713C3.42732 8.35995 3.44951 8.35511 3.45476 8.34529C3.46975 8.33561 3.47695 8.30614 3.47695 8.25732V7.13576C3.47695 7.09178 3.4696 7.06245 3.45476 7.04779C3.44441 7.03782 3.42222 7.03299 3.38713 7.03299ZM2.25522 9.10751H3.41727C3.54202 9.10751 3.63948 9.14167 3.70951 9.21014C3.77953 9.27861 3.81432 9.37376 3.81432 9.49588V10.6248C3.81432 10.8838 3.68192 11.0133 3.41727 11.0133H2.25522C2.13017 11.0133 2.03271 10.979 1.96269 10.9107C1.89266 10.8422 1.85788 10.747 1.85788 10.6248V9.49588C1.85788 9.37376 1.89266 9.27861 1.96269 9.21014C2.03271 9.14167 2.13017 9.10751 2.25522 9.10751ZM2.15761 9.49588V10.6248C2.15761 10.6639 2.16496 10.6908 2.1801 10.7054C2.19 10.7152 2.21489 10.7202 2.25507 10.7202H3.41712C3.45701 10.7202 3.48445 10.7154 3.49944 10.7054C3.50934 10.6908 3.51443 10.6639 3.51443 10.6248V9.49588C3.51443 9.45674 3.50949 9.43005 3.49944 9.41525C3.48445 9.40557 3.45701 9.40059 3.41712 9.40059H2.25507C2.21489 9.40059 2.19 9.40542 2.1801 9.41525C2.16496 9.43005 2.15761 9.45688 2.15761 9.49588Z" fill="current" stroke="current" stroke-width="0.1"/>
</svg>
