<svg width="12" height="22" viewBox="0 0 12 22" fill="none" xmlns="http://www.w3.org/2000/svg">
<path fill-rule="evenodd" clip-rule="evenodd" d="M10.8922 16.7808H11.5027C11.9533 16.7808 12.1301 17.0681 11.8976 17.4225L9.07055 21.7334C8.83667 22.09 8.46127 22.0878 8.22884 21.7334L5.40175 17.4225C5.16787 17.0659 5.34612 16.7808 5.79666 16.7808H6.40716C6.85772 16.7808 7.22294 16.4462 7.22294 16.0335V8.20419C7.22294 7.78878 7.58904 7.45694 8.04064 7.45694H9.25875C9.71505 7.45694 10.0765 7.79149 10.0765 8.20419V16.0335C10.0765 16.4489 10.4417 16.7808 10.8922 16.7808ZM1.10778 5.21921H0.497275C0.046715 5.21921 -0.130075 4.9319 0.102359 4.57748L2.92945 0.266643C3.16333 -0.0899814 3.53873 -0.0877791 3.77117 0.266643L6.59826 4.57748C6.83213 4.9341 6.65388 5.21921 6.20334 5.21921H5.59284C5.14228 5.21921 4.77707 5.55377 4.77707 5.96646V13.7958C4.77707 14.2112 4.41097 14.5431 3.95936 14.5431H2.74125C2.28495 14.5431 1.92355 14.2085 1.92355 13.7958V5.96646C1.92355 5.55106 1.55831 5.21921 1.10778 5.21921Z" fill="white"/>
</svg>
