<svg width="14" height="16" viewBox="0 0 14 16" fill="none" xmlns="http://www.w3.org/2000/svg">
<path d="M6.39598 13.1562C6.5258 13.0272 6.5907 12.866 6.5907 12.7047C6.5907 12.5435 6.5258 12.3823 6.39598 12.2533C6.13636 11.9953 5.73069 11.9953 5.48729 12.2533L4.10803 13.6237L4.10803 7.19079C4.10803 6.8361 3.81595 6.54589 3.45896 6.54589C3.10197 6.54589 2.80989 6.8361 2.80989 7.19079L2.80989 13.6237L1.43063 12.2533C1.171 11.9953 0.765335 11.9953 0.521936 12.2533C0.278536 12.5113 0.262309 12.9143 0.521936 13.1562L2.98839 15.6229C3.24801 15.8809 3.65368 15.8809 3.89708 15.6229L6.39598 13.1562Z" fill="#555555"/>
<path d="M5.92551 2.9512C5.92551 1.5969 4.8221 0.500564 3.45906 0.500564C2.09602 0.500564 0.992606 1.5969 0.992606 2.9512C0.976379 4.30551 2.09602 5.41797 3.45906 5.41797C4.8221 5.41797 5.92551 4.30551 5.92551 2.9512ZM2.27451 2.9512C2.27451 2.3063 2.79376 1.79038 3.44283 1.79038C4.0919 1.79038 4.61115 2.3063 4.61115 2.9512C4.61115 3.59611 4.0919 4.11204 3.44283 4.11204C2.80999 4.12816 2.27451 3.59611 2.27451 2.9512Z" fill="#555555"/>
<path d="M7.66176 3.15973C7.40213 3.41769 7.40213 3.82076 7.66176 4.0626C7.92139 4.32056 8.32705 4.32056 8.57045 4.0626L9.94972 2.69217L9.94972 9.14123C9.94972 9.49593 10.2418 9.78613 10.5988 9.78613C10.9558 9.78613 11.2479 9.49593 11.2479 9.14123L11.2479 2.70829L12.6271 4.07872C12.8867 4.33668 13.2924 4.33668 13.5358 4.07872C13.6656 3.94974 13.7305 3.78851 13.7305 3.62728C13.7305 3.46606 13.6656 3.30483 13.5358 3.17585L11.0369 0.692963C10.7773 0.435001 10.3716 0.435001 10.1282 0.692963L7.66176 3.15973Z" fill="#555555"/>
<path d="M8.13232 13.3658C8.13232 14.7201 9.23574 15.8164 10.5988 15.8164C11.9618 15.8164 13.0652 14.7201 13.0652 13.3658C13.0815 12.0115 11.9618 10.899 10.5988 10.899C9.23574 10.899 8.13232 12.0115 8.13232 13.3658ZM11.7833 13.3658C11.7833 14.0107 11.2641 14.5266 10.615 14.5266C9.96594 14.5266 9.44668 14.0107 9.44668 13.3658C9.44668 12.7209 9.96594 12.2049 10.615 12.2049C11.2478 12.1888 11.7833 12.7209 11.7833 13.3658Z" fill="#555555"/>
</svg>
